<?xml version="1.0" encoding="UTF-8"?>
<!DOCTYPE svg PUBLIC "-//W3C//DTD SVG 1.1//EN" "http://www.w3.org/Graphics/SVG/1.1/DTD/svg11.dtd">
<svg xmlns="http://www.w3.org/2000/svg" version="1.1" width="500px" height="500px" style="shape-rendering:geometricPrecision; text-rendering:geometricPrecision; image-rendering:optimizeQuality; fill-rule:evenodd; clip-rule:evenodd" xmlns:xlink="http://www.w3.org/1999/xlink">
<g><path style="opacity:0.982" fill="#e7dc8c" d="M 368.5,84.5 C 392.942,109.712 417.608,134.712 442.5,159.5C 443.622,160.63 444.956,161.297 446.5,161.5C 446.483,163.565 446.15,165.565 445.5,167.5C 443.567,165.404 441.233,163.904 438.5,163C 437.91,161.491 437.244,159.991 436.5,158.5C 433.099,154.93 429.265,151.93 425,149.5C 424.51,148.207 424.343,146.873 424.5,145.5C 420.897,144.697 417.897,142.863 415.5,140C 415.833,139.667 416.167,139.333 416.5,139C 412.264,138.257 410.597,135.757 411.5,131.5C 410.325,131.719 409.325,131.386 408.5,130.5C 404.877,126.675 401.21,122.842 397.5,119C 395.783,117.441 393.783,116.608 391.5,116.5C 391.439,113.27 389.772,111.437 386.5,111C 380.905,103.755 374.572,97.2549 367.5,91.5C 367.198,88.9407 367.532,86.6074 368.5,84.5 Z"/></g>
<g><path style="opacity:0.978" fill="#ddd182" d="M 384.5,84.5 C 386.167,84.5 387.833,84.5 389.5,84.5C 403.022,98.5052 416.855,112.172 431,125.5C 431.065,127.883 431.898,128.55 433.5,127.5C 436.876,132.876 441.209,137.209 446.5,140.5C 446.5,142.167 446.5,143.833 446.5,145.5C 445.325,145.719 444.325,145.386 443.5,144.5C 437.073,138.152 431.24,131.485 426,124.5C 425.333,125.833 424.667,125.833 424,124.5C 423.138,122.913 422.471,121.246 422,119.5C 414.679,112.013 407.179,104.679 399.5,97.5C 397.922,96.7022 396.256,96.2022 394.5,96C 391.381,91.3124 388.047,87.4791 384.5,84.5 Z"/></g>
<g><path style="opacity:0.98" fill="#d7c879" d="M 393.5,84.5 C 395.806,84.9926 398.139,85.3259 400.5,85.5C 402.356,89.0472 404.69,92.3805 407.5,95.5C 408.689,96.4287 410.022,96.762 411.5,96.5C 411.5,97.5 411.5,98.5 411.5,99.5C 412.552,99.3505 413.552,99.5172 414.5,100C 421.457,106.116 427.457,112.949 432.5,120.5C 437.802,123.481 442.469,127.148 446.5,131.5C 446.5,133.167 446.5,134.833 446.5,136.5C 433.316,124.482 420.649,111.982 408.5,99C 406.693,97.3977 404.693,96.0644 402.5,95C 400.381,90.7166 397.381,87.2166 393.5,84.5 Z"/></g>
<g><path style="opacity:0.963" fill="#cfbd6d" d="M 404.5,85.5 C 406.95,85.298 409.283,85.6314 411.5,86.5C 414.401,88.7622 416.734,91.5956 418.5,95C 423.947,99.1461 429.114,103.646 434,108.5C 436.529,113.583 440.362,117.25 445.5,119.5C 445.448,121.903 445.781,124.236 446.5,126.5C 444.825,124.998 442.992,123.665 441,122.5C 440.517,121.552 440.351,120.552 440.5,119.5C 439.325,119.719 438.325,119.386 437.5,118.5C 436.561,116.947 435.394,115.613 434,114.5C 433.228,114.645 432.561,114.978 432,115.5C 431.51,114.207 431.343,112.873 431.5,111.5C 429.567,111.271 427.9,110.438 426.5,109C 424.205,106.03 421.872,103.03 419.5,100C 418.552,99.5172 417.552,99.3505 416.5,99.5C 416.5,98.5 416.5,97.5 416.5,96.5C 415.448,96.6495 414.448,96.4828 413.5,96C 411.354,91.6933 408.354,88.1933 404.5,85.5 Z"/></g>
<g><path style="opacity:0.882" fill="#c6b262" d="M 112.5,86.5 C 118.167,86.5 123.833,86.5 129.5,86.5C 129.238,87.9778 129.571,89.3112 130.5,90.5C 132.642,92.6183 134.308,94.9516 135.5,97.5C 135.5,98.1667 135.5,98.8333 135.5,99.5C 129.15,95.3235 122.483,91.6569 115.5,88.5C 114.5,87.8333 113.5,87.1667 112.5,86.5 Z"/></g>
<g><path style="opacity:0.943" fill="#cbb867" d="M 411.5,86.5 C 413.861,86.6741 416.194,87.0074 418.5,87.5C 420.742,91.5815 423.576,95.2482 427,98.5C 431.167,102.667 435.333,106.833 439.5,111C 440.745,111.791 442.078,112.291 443.5,112.5C 444.015,114.894 444.681,117.228 445.5,119.5C 440.362,117.25 436.529,113.583 434,108.5C 429.114,103.646 423.947,99.1461 418.5,95C 416.734,91.5956 414.401,88.7622 411.5,86.5 Z"/></g>
<g><path style="opacity:0.984" fill="#cfbd6d" d="M 94.5,87.5 C 107.182,98.5157 119.182,110.182 130.5,122.5C 128.379,122.325 126.379,122.659 124.5,123.5C 123.989,121.805 123.322,120.139 122.5,118.5C 120.697,117.863 119.364,116.697 118.5,115C 117.552,114.517 116.552,114.351 115.5,114.5C 115.649,113.448 115.483,112.448 115,111.5C 112.509,109.71 110.342,107.543 108.5,105C 107.552,104.517 106.552,104.351 105.5,104.5C 105.5,103.5 105.5,102.5 105.5,101.5C 102.285,100.824 100.118,98.8239 99,95.5C 96.3291,93.3284 93.8291,90.995 91.5,88.5C 92.391,87.8902 93.391,87.5569 94.5,87.5 Z"/></g>
<g><path style="opacity:0.988" fill="#cbb867" d="M 94.5,87.5 C 97.1667,87.5 99.8333,87.5 102.5,87.5C 102.22,90.3882 103.553,91.8882 106.5,92C 107.667,93.8333 108.833,95.6667 110,97.5C 115.893,102.051 121.059,107.384 125.5,113.5C 129.24,115.972 132.573,118.639 135.5,121.5C 134.081,122.451 132.415,122.784 130.5,122.5C 119.182,110.182 107.182,98.5157 94.5,87.5 Z"/></g>
<g><path style="opacity:0.973" fill="#c6b262" d="M 102.5,87.5 C 103.833,87.5 105.167,87.5 106.5,87.5C 110.918,91.2436 115.251,95.2436 119.5,99.5C 120.85,100.95 122.516,101.617 124.5,101.5C 124.421,102.93 124.754,104.264 125.5,105.5C 128.64,108.857 131.973,111.857 135.5,114.5C 135.5,116.833 135.5,119.167 135.5,121.5C 132.573,118.639 129.24,115.972 125.5,113.5C 121.059,107.384 115.893,102.051 110,97.5C 108.833,95.6667 107.667,93.8333 106.5,92C 103.553,91.8882 102.22,90.3882 102.5,87.5 Z"/></g>
<g><path style="opacity:0.813" fill="#c2ab5b" d="M 129.5,86.5 C 131.5,86.5 133.5,86.5 135.5,86.5C 135.5,90.1667 135.5,93.8333 135.5,97.5C 134.308,94.9516 132.642,92.6183 130.5,90.5C 129.571,89.3112 129.238,87.9778 129.5,86.5 Z"/></g>
<g><path style="opacity:0.969" fill="#c2ac5b" d="M 106.5,87.5 C 108.265,86.5386 110.265,86.2053 112.5,86.5C 113.5,87.1667 114.5,87.8333 115.5,88.5C 114.761,88.369 114.094,88.5357 113.5,89C 122.015,94.359 129.348,100.859 135.5,108.5C 135.5,110.5 135.5,112.5 135.5,114.5C 131.973,111.857 128.64,108.857 125.5,105.5C 124.754,104.264 124.421,102.93 124.5,101.5C 122.516,101.617 120.85,100.95 119.5,99.5C 115.251,95.2436 110.918,91.2436 106.5,87.5 Z"/></g>
<g><path style="opacity:0.97" fill="#d7c879" d="M 87.5,89.5 C 97.386,99.5507 107.553,109.551 118,119.5C 118.791,120.745 119.291,122.078 119.5,123.5C 119.158,124.338 118.492,124.672 117.5,124.5C 106.466,112.799 95.1326,101.466 83.5,90.5C 84.5676,89.5655 85.901,89.2322 87.5,89.5 Z"/></g>
<g><path style="opacity:0.945" fill="#bda454" d="M 115.5,88.5 C 122.483,91.6569 129.15,95.3235 135.5,99.5C 135.5,102.5 135.5,105.5 135.5,108.5C 129.348,100.859 122.015,94.359 113.5,89C 114.094,88.5357 114.761,88.369 115.5,88.5 Z"/></g>
<g><path style="opacity:0.973" fill="#ded183" d="M 80.5,91.5 C 91.5049,103.505 103.172,114.838 115.5,125.5C 113.975,127.216 112.975,129.216 112.5,131.5C 109.163,130.516 107.663,128.183 108,124.5C 104.646,121.979 101.812,118.979 99.5,115.5C 96.8605,113.214 94.0272,111.214 91,109.5C 90.3828,108.551 90.5494,107.718 91.5,107C 85.639,103.806 81.139,99.3057 78,93.5C 77.31,94.7383 76.81,94.7383 76.5,93.5C 77.5137,92.3263 78.847,91.6596 80.5,91.5 Z"/></g>
<g><path style="opacity:0.982" fill="#d3c273" d="M 87.5,89.5 C 88.5676,88.5655 89.901,88.2322 91.5,88.5C 93.8291,90.995 96.3291,93.3284 99,95.5C 100.118,98.8239 102.285,100.824 105.5,101.5C 105.5,102.5 105.5,103.5 105.5,104.5C 106.552,104.351 107.552,104.517 108.5,105C 110.342,107.543 112.509,109.71 115,111.5C 115.483,112.448 115.649,113.448 115.5,114.5C 116.552,114.351 117.552,114.517 118.5,115C 119.364,116.697 120.697,117.863 122.5,118.5C 123.322,120.139 123.989,121.805 124.5,123.5C 122.833,123.5 121.167,123.5 119.5,123.5C 119.291,122.078 118.791,120.745 118,119.5C 107.553,109.551 97.386,99.5507 87.5,89.5 Z"/></g>
<g><path style="opacity:1" fill="#dacc7e" d="M 80.5,91.5 C 81.209,90.596 82.209,90.2627 83.5,90.5C 95.1326,101.466 106.466,112.799 117.5,124.5C 117.158,125.338 116.492,125.672 115.5,125.5C 103.172,114.838 91.5049,103.505 80.5,91.5 Z"/></g>
<g><path style="opacity:0.983" fill="#e4d67f" d="M 367.5,95.5 C 376.915,105.675 387.415,115.675 399,125.5C 403.001,130.836 407.334,135.17 412,138.5C 415.024,141.527 417.691,144.86 420,148.5C 420.333,148.167 420.667,147.833 421,147.5C 428.623,155.955 436.79,163.955 445.5,171.5C 445.326,173.861 444.993,176.194 444.5,178.5C 439.276,173.235 433.776,168.235 428,163.5C 426.562,162.1 425.729,160.433 425.5,158.5C 422.612,158.78 421.112,157.447 421,154.5C 420.667,154.833 420.333,155.167 420,155.5C 416.598,150.819 412.598,146.819 408,143.5C 406.879,140.164 404.713,138.164 401.5,137.5C 401.649,136.448 401.483,135.448 401,134.5C 400.667,134.833 400.333,135.167 400,135.5C 397.083,132.037 394.249,128.537 391.5,125C 390.552,124.517 389.552,124.351 388.5,124.5C 388.804,123.85 389.137,123.183 389.5,122.5C 388.302,122.06 387.135,121.727 386,121.5C 384.47,119.774 383.47,117.774 383,115.5C 380.871,116.863 380.371,116.529 381.5,114.5C 379.207,113.374 377.04,112.041 375,110.5C 374.51,109.207 374.343,107.873 374.5,106.5C 373.127,106.657 371.793,106.49 370.5,106C 369.947,104.122 368.947,102.622 367.5,101.5C 367.5,99.5 367.5,97.5 367.5,95.5 Z"/></g>
<g><path style="opacity:0.991" fill="#e9e091" d="M 368.5,84.5 C 371.167,84.5 373.833,84.5 376.5,84.5C 398.322,106.489 419.989,128.656 441.5,151C 442.9,152.438 444.567,153.271 446.5,153.5C 446.5,156.167 446.5,158.833 446.5,161.5C 444.956,161.297 443.622,160.63 442.5,159.5C 417.608,134.712 392.942,109.712 368.5,84.5 Z"/></g>
<g><path style="opacity:1" fill="#d3c373" d="M 400.5,85.5 C 401.833,85.5 403.167,85.5 404.5,85.5C 408.354,88.1933 411.354,91.6933 413.5,96C 414.448,96.4828 415.448,96.6495 416.5,96.5C 416.5,97.5 416.5,98.5 416.5,99.5C 417.552,99.3505 418.552,99.5172 419.5,100C 421.872,103.03 424.205,106.03 426.5,109C 427.9,110.438 429.567,111.271 431.5,111.5C 431.343,112.873 431.51,114.207 432,115.5C 432.561,114.978 433.228,114.645 434,114.5C 435.394,115.613 436.561,116.947 437.5,118.5C 438.325,119.386 439.325,119.719 440.5,119.5C 440.351,120.552 440.517,121.552 441,122.5C 442.992,123.665 444.825,124.998 446.5,126.5C 446.5,128.167 446.5,129.833 446.5,131.5C 442.469,127.148 437.802,123.481 432.5,120.5C 427.457,112.949 421.457,106.116 414.5,100C 413.552,99.5172 412.552,99.3505 411.5,99.5C 411.5,98.5 411.5,97.5 411.5,96.5C 410.022,96.762 408.689,96.4287 407.5,95.5C 404.69,92.3805 402.356,89.0472 400.5,85.5 Z"/></g>
<g><path style="opacity:0.975" fill="#e7dc8c" d="M 67.5,100.5 C 75.8123,108.146 83.8123,116.146 91.5,124.5C 92.325,125.386 93.325,125.719 94.5,125.5C 94.5,126.5 94.5,127.5 94.5,128.5C 100.044,132.697 105.378,137.363 110.5,142.5C 110.5,145.167 110.5,147.833 110.5,150.5C 109.023,148.193 107.023,146.36 104.5,145C 104.833,144.667 105.167,144.333 105.5,144C 102.167,143.333 100.167,141.333 99.5,138C 98.175,138.148 97.0084,137.982 96,137.5C 95.5291,134.529 94.3625,131.862 92.5,129.5C 88.9002,125.41 84.5669,122.244 79.5,120C 79.8333,119.667 80.1667,119.333 80.5,119C 79.6433,118.311 78.9767,117.478 78.5,116.5C 77.7261,115.289 76.8928,115.289 76,116.5C 73.6153,114.116 71.6153,111.45 70,108.5C 68.207,106.975 66.3737,105.642 64.5,104.5C 65.0256,102.77 66.0256,101.436 67.5,100.5 Z"/></g>
<g><path style="opacity:0.993" fill="#e9e091" d="M 71.5,96.5 C 84.1709,110.171 97.5043,123.171 111.5,135.5C 110.631,137.717 110.298,140.05 110.5,142.5C 105.378,137.363 100.044,132.697 94.5,128.5C 94.5,127.5 94.5,126.5 94.5,125.5C 93.325,125.719 92.325,125.386 91.5,124.5C 83.8123,116.146 75.8123,108.146 67.5,100.5C 68.5,98.8333 69.8333,97.5 71.5,96.5 Z"/></g>
<g><path style="opacity:0.89" fill="#e2d27a" d="M 367.5,101.5 C 368.947,102.622 369.947,104.122 370.5,106C 371.793,106.49 373.127,106.657 374.5,106.5C 374.343,107.873 374.51,109.207 375,110.5C 377.04,112.041 379.207,113.374 381.5,114.5C 380.371,116.529 380.871,116.863 383,115.5C 383.47,117.774 384.47,119.774 386,121.5C 387.135,121.727 388.302,122.06 389.5,122.5C 389.137,123.183 388.804,123.85 388.5,124.5C 386.287,123.227 383.954,122.227 381.5,121.5C 377.273,116.388 372.606,111.721 367.5,107.5C 367.5,105.5 367.5,103.5 367.5,101.5 Z"/></g>
<g><path style="opacity:0.951" fill="#c7b363" d="M 418.5,87.5 C 431.167,91.5 439.5,99.8333 443.5,112.5C 442.078,112.291 440.745,111.791 439.5,111C 435.333,106.833 431.167,102.667 427,98.5C 423.576,95.2482 420.742,91.5815 418.5,87.5 Z"/></g>
<g><path style="opacity:0.984" fill="#e4d67f" d="M 63.5,106.5 C 64.8382,108.67 66.6716,110.336 69,111.5C 80.5388,123.039 92.5388,135.039 105,147.5C 105.483,148.448 105.649,149.448 105.5,150.5C 107.664,150.721 109.33,151.721 110.5,153.5C 110.5,155.5 110.5,157.5 110.5,159.5C 108.745,158.928 107.078,158.094 105.5,157C 101.557,152.343 97.5573,147.676 93.5,143C 92.552,142.517 91.552,142.351 90.5,142.5C 90.719,141.325 90.3857,140.325 89.5,139.5C 85.8762,135.91 82.0428,132.577 78,129.5C 77.3828,128.551 77.5494,127.718 78.5,127C 74.8966,126.199 72.5632,124.032 71.5,120.5C 70.914,120.709 70.414,121.043 70,121.5C 66.8085,118.031 63.6419,114.698 60.5,111.5C 61.2632,109.632 62.2632,107.965 63.5,106.5 Z"/></g>
<g><path style="opacity:0.983" fill="#e2d279" d="M 60.5,111.5 C 63.6419,114.698 66.8085,118.031 70,121.5C 70.414,121.043 70.914,120.709 71.5,120.5C 72.5632,124.032 74.8966,126.199 78.5,127C 77.5494,127.718 77.3828,128.551 78,129.5C 82.0428,132.577 85.8762,135.91 89.5,139.5C 90.3857,140.325 90.719,141.325 90.5,142.5C 91.552,142.351 92.552,142.517 93.5,143C 97.5573,147.676 101.557,152.343 105.5,157C 107.078,158.094 108.745,158.928 110.5,159.5C 110.5,161.167 110.5,162.833 110.5,164.5C 93.2663,148.319 76.2663,131.985 59.5,115.5C 59.8333,114.167 60.1667,112.833 60.5,111.5 Z"/></g>
<g><path style="opacity:1" fill="#dacc7e" d="M 389.5,84.5 C 390.833,84.5 392.167,84.5 393.5,84.5C 397.381,87.2166 400.381,90.7166 402.5,95C 404.693,96.0644 406.693,97.3977 408.5,99C 420.649,111.982 433.316,124.482 446.5,136.5C 446.5,137.833 446.5,139.167 446.5,140.5C 441.209,137.209 436.876,132.876 433.5,127.5C 431.898,128.55 431.065,127.883 431,125.5C 416.855,112.172 403.022,98.5052 389.5,84.5 Z"/></g>
<g><path style="opacity:1" fill="#e4d98b" d="M 76.5,93.5 C 76.81,94.7383 77.31,94.7383 78,93.5C 81.139,99.3057 85.639,103.806 91.5,107C 90.5494,107.718 90.3828,108.551 91,109.5C 94.0272,111.214 96.8605,113.214 99.5,115.5C 101.812,118.979 104.646,121.979 108,124.5C 107.663,128.183 109.163,130.516 112.5,131.5C 111.766,132.708 111.433,134.041 111.5,135.5C 97.5043,123.171 84.1709,110.171 71.5,96.5C 72.8993,95.1103 74.5659,94.1103 76.5,93.5 Z"/></g>
<g><path style="opacity:0.998" fill="#e1d687" d="M 380.5,84.5 C 381.833,84.5 383.167,84.5 384.5,84.5C 388.047,87.4791 391.381,91.3124 394.5,96C 396.256,96.2022 397.922,96.7022 399.5,97.5C 407.179,104.679 414.679,112.013 422,119.5C 422.471,121.246 423.138,122.913 424,124.5C 424.667,125.833 425.333,125.833 426,124.5C 431.24,131.485 437.073,138.152 443.5,144.5C 444.325,145.386 445.325,145.719 446.5,145.5C 446.5,146.833 446.5,148.167 446.5,149.5C 442.016,147.357 439.016,144.024 437.5,139.5C 431.604,136.773 427.104,132.44 424,126.5C 423.586,126.957 423.086,127.291 422.5,127.5C 419.543,123.708 416.21,120.375 412.5,117.5C 411.754,116.264 411.421,114.93 411.5,113.5C 409.516,113.617 407.85,112.95 406.5,111.5C 400.794,104.126 394.127,97.793 386.5,92.5C 385.833,90.8333 385.167,89.1667 384.5,87.5C 383.099,86.4793 381.765,85.4793 380.5,84.5 Z"/></g>
<g><path style="opacity:1" fill="#e5da8c" d="M 376.5,84.5 C 377.833,84.5 379.167,84.5 380.5,84.5C 381.765,85.4793 383.099,86.4793 384.5,87.5C 385.167,89.1667 385.833,90.8333 386.5,92.5C 394.127,97.793 400.794,104.126 406.5,111.5C 407.85,112.95 409.516,113.617 411.5,113.5C 411.421,114.93 411.754,116.264 412.5,117.5C 416.21,120.375 419.543,123.708 422.5,127.5C 423.086,127.291 423.586,126.957 424,126.5C 427.104,132.44 431.604,136.773 437.5,139.5C 439.016,144.024 442.016,147.357 446.5,149.5C 446.5,150.833 446.5,152.167 446.5,153.5C 444.567,153.271 442.9,152.438 441.5,151C 419.989,128.656 398.322,106.489 376.5,84.5 Z"/></g>
<g><path style="opacity:1" fill="#e0ce72" d="M 367.5,107.5 C 372.606,111.721 377.273,116.388 381.5,121.5C 376.87,120.771 372.203,120.437 367.5,120.5C 367.5,116.167 367.5,111.833 367.5,107.5 Z"/></g>
<g><path style="opacity:0.97" fill="#decb6d" d="M 58.5,118.5 C 61.0409,121.201 63.3743,124.201 65.5,127.5C 67.9576,129.455 70.291,131.622 72.5,134C 73.448,134.483 74.448,134.649 75.5,134.5C 77.7488,137.93 80.2488,141.263 83,144.5C 86.7659,147.787 90.5992,150.787 94.5,153.5C 94.3505,154.552 94.5172,155.552 95,156.5C 98.8416,159.175 102.008,162.509 104.5,166.5C 107.048,168.025 109.381,169.692 111.5,171.5C 111.5,173.5 111.5,175.5 111.5,177.5C 108.166,173.232 104.166,169.565 99.5,166.5C 94.3462,161.061 89.3462,155.394 84.5,149.5C 81.7053,148.539 79.7053,146.706 78.5,144C 77.552,143.517 76.552,143.351 75.5,143.5C 73.3203,139.627 70.6537,135.961 67.5,132.5C 66.1667,131.833 64.8333,131.167 63.5,130.5C 62.1921,127.536 60.1921,125.203 57.5,123.5C 57.6287,121.784 57.962,120.117 58.5,118.5 Z"/></g>
<g><path style="opacity:0.978" fill="#fefffe" d="M 240.5,119.5 C 271.774,116.652 300.441,123.818 326.5,141C 331.396,144.942 336.063,149.108 340.5,153.5C 329.516,167.814 318.182,181.814 306.5,195.5C 294.511,186.674 281.178,180.841 266.5,178C 258.445,177.178 250.445,177.512 242.5,179C 232.769,182.057 228.936,188.557 231,198.5C 232.833,201.667 235.333,204.167 238.5,206C 258.927,214.92 279.593,223.254 300.5,231C 338.968,248.436 353.634,277.936 344.5,319.5C 334.731,348.433 315.064,366.933 285.5,375C 242.056,385.509 201.722,378.509 164.5,354C 160.272,350.726 156.272,347.226 152.5,343.5C 164.819,327.851 177.486,312.517 190.5,297.5C 205.723,309.11 222.723,316.943 241.5,321C 251.931,322.535 261.931,321.202 271.5,317C 277.171,312.47 279.004,306.637 277,299.5C 275.542,297.04 273.709,294.873 271.5,293C 251.282,284.058 230.949,275.391 210.5,267C 166.854,246.532 152.687,213.365 168,167.5C 177.734,148.434 192.567,134.934 212.5,127C 221.716,123.532 231.049,121.032 240.5,119.5 Z"/></g>
<g><path style="opacity:0.977" fill="#ddc867" d="M 57.5,123.5 C 60.1921,125.203 62.1921,127.536 63.5,130.5C 64.8333,131.167 66.1667,131.833 67.5,132.5C 70.6537,135.961 73.3203,139.627 75.5,143.5C 76.552,143.351 77.552,143.517 78.5,144C 79.7053,146.706 81.7053,148.539 84.5,149.5C 89.3462,155.394 94.3462,161.061 99.5,166.5C 104.166,169.565 108.166,173.232 111.5,177.5C 111.5,179.833 111.5,182.167 111.5,184.5C 92.7097,167.17 74.3764,149.17 56.5,130.5C 56.6741,128.139 57.0074,125.806 57.5,123.5 Z"/></g>
<g><path style="opacity:0.972" fill="#e2d279" d="M 388.5,124.5 C 389.552,124.351 390.552,124.517 391.5,125C 394.249,128.537 397.083,132.037 400,135.5C 400.333,135.167 400.667,134.833 401,134.5C 401.483,135.448 401.649,136.448 401.5,137.5C 404.713,138.164 406.879,140.164 408,143.5C 412.598,146.819 416.598,150.819 420,155.5C 420.333,155.167 420.667,154.833 421,154.5C 421.112,157.447 422.612,158.78 425.5,158.5C 425.729,160.433 426.562,162.1 428,163.5C 433.776,168.235 439.276,173.235 444.5,178.5C 444.5,180.167 444.5,181.833 444.5,183.5C 427.7,166.906 411.034,150.073 394.5,133C 393.473,132.487 392.473,131.987 391.5,131.5C 390.695,129.085 389.695,126.751 388.5,124.5 Z"/></g>
<g><path style="opacity:0.993" fill="#e6d986" d="M 367.5,91.5 C 374.572,97.2549 380.905,103.755 386.5,111C 389.772,111.437 391.439,113.27 391.5,116.5C 393.783,116.608 395.783,117.441 397.5,119C 401.21,122.842 404.877,126.675 408.5,130.5C 409.325,131.386 410.325,131.719 411.5,131.5C 410.597,135.757 412.264,138.257 416.5,139C 416.167,139.333 415.833,139.667 415.5,140C 417.897,142.863 420.897,144.697 424.5,145.5C 424.343,146.873 424.51,148.207 425,149.5C 429.265,151.93 433.099,154.93 436.5,158.5C 437.244,159.991 437.91,161.491 438.5,163C 441.233,163.904 443.567,165.404 445.5,167.5C 445.5,168.833 445.5,170.167 445.5,171.5C 436.79,163.955 428.623,155.955 421,147.5C 420.667,147.833 420.333,148.167 420,148.5C 417.691,144.86 415.024,141.527 412,138.5C 407.334,135.17 403.001,130.836 399,125.5C 387.415,115.675 376.915,105.675 367.5,95.5C 367.5,94.1667 367.5,92.8333 367.5,91.5 Z"/></g>
<g><path style="opacity:0.977" fill="#e5d986" d="M 64.5,104.5 C 66.3737,105.642 68.207,106.975 70,108.5C 71.6153,111.45 73.6153,114.116 76,116.5C 76.8928,115.289 77.7261,115.289 78.5,116.5C 78.9767,117.478 79.6433,118.311 80.5,119C 80.1667,119.333 79.8333,119.667 79.5,120C 84.5669,122.244 88.9002,125.41 92.5,129.5C 94.3625,131.862 95.5291,134.529 96,137.5C 97.0084,137.982 98.175,138.148 99.5,138C 100.167,141.333 102.167,143.333 105.5,144C 105.167,144.333 104.833,144.667 104.5,145C 107.023,146.36 109.023,148.193 110.5,150.5C 110.5,151.5 110.5,152.5 110.5,153.5C 109.33,151.721 107.664,150.721 105.5,150.5C 105.649,149.448 105.483,148.448 105,147.5C 92.5388,135.039 80.5388,123.039 69,111.5C 66.6716,110.336 64.8382,108.67 63.5,106.5C 63.3284,105.508 63.6618,104.842 64.5,104.5 Z"/></g>
<g><path style="opacity:1" fill="#e0cf73" d="M 59.5,115.5 C 76.2663,131.985 93.2663,148.319 110.5,164.5C 110.448,166.903 110.781,169.236 111.5,171.5C 109.381,169.692 107.048,168.025 104.5,166.5C 102.008,162.509 98.8416,159.175 95,156.5C 94.5172,155.552 94.3505,154.552 94.5,153.5C 90.5992,150.787 86.7659,147.787 83,144.5C 80.2488,141.263 77.7488,137.93 75.5,134.5C 74.448,134.649 73.448,134.483 72.5,134C 70.291,131.622 67.9576,129.455 65.5,127.5C 63.3743,124.201 61.0409,121.201 58.5,118.5C 58.5569,117.391 58.8902,116.391 59.5,115.5 Z"/></g>
<g><path style="opacity:0.997" fill="#d8c05a" d="M 56.5,137.5 C 57.2389,137.369 57.9056,137.536 58.5,138C 76.0506,155.751 93.7173,173.251 111.5,190.5C 111.5,192.833 111.5,195.167 111.5,197.5C 93.9276,178.594 75.5943,160.261 56.5,142.5C 56.5,140.833 56.5,139.167 56.5,137.5 Z"/></g>
<g><path style="opacity:0.98" fill="#decb6d" d="M 392.5,137.5 C 396.595,141.722 400.928,145.722 405.5,149.5C 406.246,150.736 406.579,152.07 406.5,153.5C 407.552,153.351 408.552,153.517 409.5,154C 420.652,165.73 431.985,177.23 443.5,188.5C 443.5,190.167 443.5,191.833 443.5,193.5C 442.163,192.685 441.163,191.518 440.5,190C 439.552,189.517 438.552,189.351 437.5,189.5C 437.649,188.448 437.483,187.448 437,186.5C 430.66,180.826 424.66,174.826 419,168.5C 418.667,168.833 418.333,169.167 418,169.5C 417.193,166.027 415.027,163.86 411.5,163C 409.432,158.963 406.432,155.796 402.5,153.5C 400.264,149.084 396.93,146.084 392.5,144.5C 392.5,142.167 392.5,139.833 392.5,137.5 Z"/></g>
<g><path style="opacity:0.999" fill="#d7bc54" d="M 56.5,142.5 C 75.5943,160.261 93.9276,178.594 111.5,197.5C 111.5,199.167 111.5,200.833 111.5,202.5C 108.695,199.169 105.528,196.169 102,193.5C 101.517,192.552 101.351,191.552 101.5,190.5C 97.9404,187.941 94.2737,185.441 90.5,183C 79.4841,170.746 68.1508,158.913 56.5,147.5C 56.5,145.833 56.5,144.167 56.5,142.5 Z"/></g>
<g><path style="opacity:0.978" fill="#ddc867" d="M 392.5,144.5 C 396.93,146.084 400.264,149.084 402.5,153.5C 406.432,155.796 409.432,158.963 411.5,163C 415.027,163.86 417.193,166.027 418,169.5C 418.333,169.167 418.667,168.833 419,168.5C 424.66,174.826 430.66,180.826 437,186.5C 437.483,187.448 437.649,188.448 437.5,189.5C 438.552,189.351 439.552,189.517 440.5,190C 441.163,191.518 442.163,192.685 443.5,193.5C 443.5,196.167 443.5,198.833 443.5,201.5C 426.706,184.195 409.706,167.195 392.5,150.5C 392.5,148.5 392.5,146.5 392.5,144.5 Z"/></g>
<g><path style="opacity:0.998" fill="#d5b94f" d="M 56.5,147.5 C 68.1508,158.913 79.4841,170.746 90.5,183C 94.2737,185.441 97.9404,187.941 101.5,190.5C 101.351,191.552 101.517,192.552 102,193.5C 105.528,196.169 108.695,199.169 111.5,202.5C 111.5,203.833 111.5,205.167 111.5,206.5C 110.5,206.5 109.5,206.5 108.5,206.5C 106.285,202.61 103.285,199.276 99.5,196.5C 95.1962,189.696 89.6962,184.029 83,179.5C 75.3553,170.925 67.6886,162.259 60,153.5C 58.8545,154.684 57.6879,154.684 56.5,153.5C 56.5,151.5 56.5,149.5 56.5,147.5 Z"/></g>
<g><path style="opacity:0.994" fill="#cbb04c" d="M 56.5,155.5 C 73.7321,172.648 91.0654,189.648 108.5,206.5C 109.5,206.5 110.5,206.5 111.5,206.5C 111.5,208.5 111.5,210.5 111.5,212.5C 104.793,207.793 99.1262,202.126 94.5,195.5C 81.1504,183.816 68.4838,171.483 56.5,158.5C 56.5,157.5 56.5,156.5 56.5,155.5 Z"/></g>
<g><path style="opacity:0.981" fill="#d8bf5a" d="M 392.5,157.5 C 409.299,174.159 426.299,190.492 443.5,206.5C 443.448,208.903 443.781,211.236 444.5,213.5C 427.497,196.497 410.163,179.83 392.5,163.5C 392.5,161.5 392.5,159.5 392.5,157.5 Z"/></g>
<g><path style="opacity:1" fill="#e0cf73" d="M 391.5,131.5 C 392.473,131.987 393.473,132.487 394.5,133C 411.034,150.073 427.7,166.906 444.5,183.5C 443.962,185.117 443.629,186.784 443.5,188.5C 431.985,177.23 420.652,165.73 409.5,154C 408.552,153.517 407.552,153.351 406.5,153.5C 406.579,152.07 406.246,150.736 405.5,149.5C 400.928,145.722 396.595,141.722 392.5,137.5C 392.167,135.5 391.833,133.5 391.5,131.5 Z"/></g>
<g><path style="opacity:0.971" fill="#bea448" d="M 56.5,163.5 C 74.8874,181.887 93.2208,200.221 111.5,218.5C 111.737,219.791 111.404,220.791 110.5,221.5C 92.8333,204.167 75.1667,186.833 57.5,169.5C 56.8505,167.565 56.5172,165.565 56.5,163.5 Z"/></g>
<g><path style="opacity:1" fill="#dac360" d="M 56.5,130.5 C 74.3764,149.17 92.7097,167.17 111.5,184.5C 111.5,186.5 111.5,188.5 111.5,190.5C 93.7173,173.251 76.0506,155.751 58.5,138C 57.9056,137.536 57.2389,137.369 56.5,137.5C 56.5,135.167 56.5,132.833 56.5,130.5 Z"/></g>
<g><path style="opacity:0.978" fill="#d7bc54" d="M 392.5,163.5 C 410.163,179.83 427.497,196.497 444.5,213.5C 447.528,221.195 452.862,226.528 460.5,229.5C 465.479,235.146 470.812,240.479 476.5,245.5C 476.5,247.833 476.5,250.167 476.5,252.5C 474.005,250.171 471.672,247.671 469.5,245C 467.76,243.306 465.76,242.139 463.5,241.5C 463.509,239.692 463.009,238.025 462,236.5C 458.795,234.417 455.795,232.083 453,229.5C 452.517,228.552 452.351,227.552 452.5,226.5C 449.5,224.5 446.5,222.5 443.5,220.5C 443.494,216.898 441.66,214.898 438,214.5C 435.451,211.928 433.618,208.928 432.5,205.5C 431.022,205.762 429.689,205.429 428.5,204.5C 420.017,195.189 410.683,186.023 400.5,177C 400.833,176.667 401.167,176.333 401.5,176C 400.109,174.98 398.609,174.147 397,173.5C 395.628,170.986 394.128,168.653 392.5,166.5C 392.5,165.5 392.5,164.5 392.5,163.5 Z"/></g>
<g><path style="opacity:1" fill="#c5ab4a" d="M 56.5,158.5 C 68.4838,171.483 81.1504,183.816 94.5,195.5C 99.1262,202.126 104.793,207.793 111.5,212.5C 111.5,214.5 111.5,216.5 111.5,218.5C 93.2208,200.221 74.8874,181.887 56.5,163.5C 56.5,161.833 56.5,160.167 56.5,158.5 Z"/></g>
<g><path style="opacity:0.986" fill="#d5b94f" d="M 392.5,166.5 C 394.128,168.653 395.628,170.986 397,173.5C 398.609,174.147 400.109,174.98 401.5,176C 401.167,176.333 400.833,176.667 400.5,177C 410.683,186.023 420.017,195.189 428.5,204.5C 429.689,205.429 431.022,205.762 432.5,205.5C 433.618,208.928 435.451,211.928 438,214.5C 441.66,214.898 443.494,216.898 443.5,220.5C 446.5,222.5 449.5,224.5 452.5,226.5C 452.351,227.552 452.517,228.552 453,229.5C 455.795,232.083 458.795,234.417 462,236.5C 463.009,238.025 463.509,239.692 463.5,241.5C 465.76,242.139 467.76,243.306 469.5,245C 471.672,247.671 474.005,250.171 476.5,252.5C 476.5,253.833 476.5,255.167 476.5,256.5C 472.703,253.702 469.536,250.369 467,246.5C 466.667,246.833 466.333,247.167 466,247.5C 465.667,246.167 465.333,244.833 465,243.5C 460.819,239.321 456.319,235.488 451.5,232C 446.49,226.293 441.49,220.626 436.5,215C 434.423,213.295 432.09,212.128 429.5,211.5C 429.167,211.5 428.833,211.5 428.5,211.5C 428.082,208.91 427.082,206.577 425.5,204.5C 421.017,200.428 416.351,196.594 411.5,193C 408.882,190.708 407.049,187.874 406,184.5C 403.079,182.704 400.579,180.37 398.5,177.5C 396.466,176.441 394.466,175.441 392.5,174.5C 392.167,174.5 391.833,174.5 391.5,174.5C 391.279,171.721 391.612,169.054 392.5,166.5 Z"/></g>
<g><path style="opacity:1" fill="#dac360" d="M 392.5,150.5 C 409.706,167.195 426.706,184.195 443.5,201.5C 443.5,203.167 443.5,204.833 443.5,206.5C 426.299,190.492 409.299,174.159 392.5,157.5C 392.5,155.167 392.5,152.833 392.5,150.5 Z"/></g>
<g><path style="opacity:0.984" fill="#b89f46" d="M 57.5,169.5 C 75.1667,186.833 92.8333,204.167 110.5,221.5C 110.784,223.415 110.451,225.081 109.5,226.5C 109.291,225.078 108.791,223.745 108,222.5C 90.9233,206.254 74.09,189.921 57.5,173.5C 57.5,172.167 57.5,170.833 57.5,169.5 Z"/></g>
<g><path style="opacity:0.985" fill="#b29945" d="M 57.5,173.5 C 74.09,189.921 90.9233,206.254 108,222.5C 108.791,223.745 109.291,225.078 109.5,226.5C 109.5,227.5 109.5,228.5 109.5,229.5C 102.655,223.146 96.3218,216.979 90.5,211C 80.5991,199.674 69.9325,189.174 58.5,179.5C 57.8505,177.565 57.5172,175.565 57.5,173.5 Z"/></g>
<g><path style="opacity:0.992" fill="#cbb04c" d="M 391.5,174.5 C 391.833,174.5 392.167,174.5 392.5,174.5C 403.822,187.463 415.822,199.796 428.5,211.5C 428.833,211.5 429.167,211.5 429.5,211.5C 430.504,212.683 431.338,214.016 432,215.5C 447.332,229.666 462.166,244.332 476.5,259.5C 476.5,260.5 476.5,261.5 476.5,262.5C 469.559,256.391 463.059,249.724 457,242.5C 449.026,234.529 440.692,226.862 432,219.5C 431.517,218.552 431.351,217.552 431.5,216.5C 428.671,216.675 427.004,215.342 426.5,212.5C 423.449,209.445 420.116,206.779 416.5,204.5C 414.036,201.723 412.036,198.723 410.5,195.5C 407.832,194.901 405.998,193.234 405,190.5C 399.937,186.926 395.437,182.926 391.5,178.5C 391.5,177.167 391.5,175.833 391.5,174.5 Z"/></g>
<g><path style="opacity:1" fill="#d1b54d" d="M 56.5,153.5 C 57.6879,154.684 58.8545,154.684 60,153.5C 67.6886,162.259 75.3553,170.925 83,179.5C 89.6962,184.029 95.1962,189.696 99.5,196.5C 103.285,199.276 106.285,202.61 108.5,206.5C 91.0654,189.648 73.7321,172.648 56.5,155.5C 56.5,154.833 56.5,154.167 56.5,153.5 Z"/></g>
<g><path style="opacity:0.995" fill="#bea448" d="M 391.5,183.5 C 419.881,211.548 448.214,239.548 476.5,267.5C 476.843,269.483 476.176,270.817 474.5,271.5C 474.631,270.761 474.464,270.094 474,269.5C 446.86,243.694 420.36,217.194 394.5,190C 393.473,189.487 392.473,188.987 391.5,188.5C 391.5,186.833 391.5,185.167 391.5,183.5 Z"/></g>
<g><path style="opacity:1" fill="#d0b44d" d="M 392.5,174.5 C 394.466,175.441 396.466,176.441 398.5,177.5C 400.579,180.37 403.079,182.704 406,184.5C 407.049,187.874 408.882,190.708 411.5,193C 416.351,196.594 421.017,200.428 425.5,204.5C 427.082,206.577 428.082,208.91 428.5,211.5C 415.822,199.796 403.822,187.463 392.5,174.5 Z"/></g>
<g><path style="opacity:0.997" fill="#b89f46" d="M 391.5,188.5 C 392.473,188.987 393.473,189.487 394.5,190C 420.36,217.194 446.86,243.694 474,269.5C 474.464,270.094 474.631,270.761 474.5,271.5C 473.833,271.5 473.167,271.5 472.5,271.5C 471.761,271.631 471.094,271.464 470.5,271C 459.149,259.316 447.816,247.649 436.5,236C 435.552,235.517 434.552,235.351 433.5,235.5C 433.271,233.567 432.438,231.9 431,230.5C 418.043,217.554 404.876,204.887 391.5,192.5C 391.5,191.167 391.5,189.833 391.5,188.5 Z"/></g>
<g><path style="opacity:1" fill="#9e8840" d="M 59.5,188.5 C 62.4092,191.065 65.4092,193.731 68.5,196.5C 69.2458,197.736 69.5792,199.07 69.5,200.5C 70.552,200.351 71.552,200.517 72.5,201C 75.8411,204.045 79.1744,207.045 82.5,210C 84.607,211.264 85.607,213.097 85.5,215.5C 86.5,215.5 87.5,215.5 88.5,215.5C 88.281,216.675 88.6143,217.675 89.5,218.5C 95.5657,223.899 101.232,229.566 106.5,235.5C 106.443,236.609 106.11,237.609 105.5,238.5C 98.1276,231.391 90.6276,224.391 83,217.5C 82.5503,215.481 81.717,213.648 80.5,212C 77.7583,210.93 75.2583,209.43 73,207.5C 72.5172,206.552 72.3505,205.552 72.5,204.5C 71.5,204.5 70.5,204.5 69.5,204.5C 69.6495,203.448 69.4828,202.448 69,201.5C 66.957,200.421 65.6237,198.754 65,196.5C 63.4157,195.139 61.5824,194.472 59.5,194.5C 59.5,192.5 59.5,190.5 59.5,188.5 Z"/></g>
<g><path style="opacity:1" fill="#aa9343" d="M 58.5,179.5 C 69.9325,189.174 80.5991,199.674 90.5,211C 96.3218,216.979 102.655,223.146 109.5,229.5C 109.011,230.995 108.345,232.329 107.5,233.5C 91.4538,216.787 75.1205,200.454 58.5,184.5C 58.5,182.833 58.5,181.167 58.5,179.5 Z"/></g>
<g><path style="opacity:0.985" fill="#a48d41" d="M 58.5,184.5 C 75.1205,200.454 91.4538,216.787 107.5,233.5C 107.672,234.492 107.338,235.158 106.5,235.5C 101.232,229.566 95.5657,223.899 89.5,218.5C 88.6143,217.675 88.281,216.675 88.5,215.5C 87.5,215.5 86.5,215.5 85.5,215.5C 85.607,213.097 84.607,211.264 82.5,210C 79.1744,207.045 75.8411,204.045 72.5,201C 71.552,200.517 70.552,200.351 69.5,200.5C 69.5792,199.07 69.2458,197.736 68.5,196.5C 65.4092,193.731 62.4092,191.065 59.5,188.5C 58.7659,187.292 58.4326,185.959 58.5,184.5 Z"/></g>
<g><path style="opacity:0.99" fill="#a48d41" d="M 391.5,201.5 C 400.769,210.19 409.769,219.356 418.5,229C 419.448,229.483 420.448,229.649 421.5,229.5C 421.5,230.5 421.5,231.5 421.5,232.5C 422.675,232.281 423.675,232.614 424.5,233.5C 430.351,240.764 436.685,247.597 443.5,254C 444.448,254.483 445.448,254.649 446.5,254.5C 446.281,255.675 446.614,256.675 447.5,257.5C 452.855,262.942 458.188,268.276 463.5,273.5C 462.791,274.404 461.791,274.737 460.5,274.5C 451.749,265.493 443.083,256.326 434.5,247C 432.52,244.836 430.187,243.336 427.5,242.5C 427.649,241.448 427.483,240.448 427,239.5C 415.806,228.306 404.64,217.14 393.5,206C 392.906,205.536 392.239,205.369 391.5,205.5C 391.5,204.167 391.5,202.833 391.5,201.5 Z"/></g>
<g><path style="opacity:0.972" fill="#867239" d="M 59.5,204.5 C 73.2042,217.538 86.5375,230.871 99.5,244.5C 99.1667,245.5 98.5,246.167 97.5,246.5C 95.461,245.089 94.461,243.089 94.5,240.5C 90.8333,240.167 88.8333,238.167 88.5,234.5C 84.1949,233.045 80.8615,230.212 78.5,226C 77.552,225.517 76.552,225.351 75.5,225.5C 75.6495,224.448 75.4828,223.448 75,222.5C 72.6667,221.5 71,219.833 70,217.5C 69.6667,217.833 69.3333,218.167 69,218.5C 67.2511,216.247 65.7511,213.914 64.5,211.5C 62.4458,211.635 60.7791,210.968 59.5,209.5C 59.5,207.833 59.5,206.167 59.5,204.5 Z"/></g>
<g><path style="opacity:1" fill="#c5ab4a" d="M 391.5,178.5 C 395.437,182.926 399.937,186.926 405,190.5C 405.998,193.234 407.832,194.901 410.5,195.5C 412.036,198.723 414.036,201.723 416.5,204.5C 420.116,206.779 423.449,209.445 426.5,212.5C 427.004,215.342 428.671,216.675 431.5,216.5C 431.351,217.552 431.517,218.552 432,219.5C 440.692,226.862 449.026,234.529 457,242.5C 463.059,249.724 469.559,256.391 476.5,262.5C 476.5,264.167 476.5,265.833 476.5,267.5C 448.214,239.548 419.881,211.548 391.5,183.5C 391.5,181.833 391.5,180.167 391.5,178.5 Z"/></g>
<g><path style="opacity:0.981" fill="#947e3d" d="M 59.5,194.5 C 61.5824,194.472 63.4157,195.139 65,196.5C 65.6237,198.754 66.957,200.421 69,201.5C 69.4828,202.448 69.6495,203.448 69.5,204.5C 70.5,204.5 71.5,204.5 72.5,204.5C 72.3505,205.552 72.5172,206.552 73,207.5C 75.2583,209.43 77.7583,210.93 80.5,212C 81.717,213.648 82.5503,215.481 83,217.5C 90.6276,224.391 98.1276,231.391 105.5,238.5C 104.5,240.167 103.167,241.5 101.5,242.5C 91.4628,232.392 81.2961,222.392 71,212.5C 69.1207,210.473 67.954,208.14 67.5,205.5C 64.8627,204.218 62.196,202.885 59.5,201.5C 59.5,199.167 59.5,196.833 59.5,194.5 Z"/></g>
<g><path style="opacity:0.993" fill="#97813d" d="M 391.5,209.5 C 403.472,221.806 415.472,234.139 427.5,246.5C 426.883,246.611 426.383,246.944 426,247.5C 421.798,243.633 417.965,239.467 414.5,235C 413.552,234.517 412.552,234.351 411.5,234.5C 411.719,233.325 411.386,232.325 410.5,231.5C 404.146,225.478 397.813,219.478 391.5,213.5C 391.5,212.167 391.5,210.833 391.5,209.5 Z"/></g>
<g><path style="opacity:0.98" fill="#796736" d="M 59.5,213.5 C 70.5331,223.866 81.1998,234.533 91.5,245.5C 92.6223,246.63 93.9557,247.297 95.5,247.5C 94.4863,248.674 93.153,249.34 91.5,249.5C 80.2635,238.651 69.2635,227.651 58.5,216.5C 58.2627,215.209 58.596,214.209 59.5,213.5 Z"/></g>
<g><path style="opacity:0.972" fill="#736134" d="M 58.5,216.5 C 69.2635,227.651 80.2635,238.651 91.5,249.5C 90.7095,250.401 89.7095,251.068 88.5,251.5C 87.1994,248.152 84.866,245.652 81.5,244C 73.7721,236.027 65.9387,228.194 58,220.5C 57.5357,219.906 57.369,219.239 57.5,218.5C 57.3284,217.508 57.6618,216.842 58.5,216.5 Z"/></g>
<g><path style="opacity:0.979" fill="#6c5b32" d="M 57.5,218.5 C 57.369,219.239 57.5357,219.906 58,220.5C 65.9387,228.194 73.7721,236.027 81.5,244C 84.866,245.652 87.1994,248.152 88.5,251.5C 87.391,251.557 86.391,251.89 85.5,252.5C 83.4013,250.006 81.068,247.673 78.5,245.5C 77.5713,244.311 77.238,242.978 77.5,241.5C 76.0695,241.579 74.7362,241.246 73.5,240.5C 67.4774,234.162 61.4774,227.829 55.5,221.5C 55.9321,220.29 56.5987,219.29 57.5,218.5 Z"/></g>
<g><path style="opacity:0.985" fill="#806d37" d="M 59.5,209.5 C 60.7791,210.968 62.4458,211.635 64.5,211.5C 65.7511,213.914 67.2511,216.247 69,218.5C 69.3333,218.167 69.6667,217.833 70,217.5C 71,219.833 72.6667,221.5 75,222.5C 75.4828,223.448 75.6495,224.448 75.5,225.5C 76.552,225.351 77.552,225.517 78.5,226C 80.8615,230.212 84.1949,233.045 88.5,234.5C 88.8333,238.167 90.8333,240.167 94.5,240.5C 94.461,243.089 95.461,245.089 97.5,246.5C 97.1583,247.338 96.4916,247.672 95.5,247.5C 93.9557,247.297 92.6223,246.63 91.5,245.5C 81.1998,234.533 70.5331,223.866 59.5,213.5C 59.5,212.167 59.5,210.833 59.5,209.5 Z"/></g>
<g><path style="opacity:0.958" fill="#867239" d="M 392.5,222.5 C 395.019,223.818 397.352,225.485 399.5,227.5C 403.654,233.884 408.987,238.884 415.5,242.5C 417.244,245.651 419.244,248.651 421.5,251.5C 418.603,250.871 415.936,249.871 413.5,248.5C 411.267,244.097 408.434,240.097 405,236.5C 403.933,235.809 402.766,235.309 401.5,235C 399.531,231.514 396.864,228.681 393.5,226.5C 393.167,225.167 392.833,223.833 392.5,222.5 Z"/></g>
<g><path style="opacity:1" fill="#9d8740" d="M 391.5,205.5 C 392.239,205.369 392.906,205.536 393.5,206C 404.64,217.14 415.806,228.306 427,239.5C 427.483,240.448 427.649,241.448 427.5,242.5C 430.187,243.336 432.52,244.836 434.5,247C 443.083,256.326 451.749,265.493 460.5,274.5C 459.71,275.401 458.71,276.068 457.5,276.5C 447.507,266.501 437.507,256.501 427.5,246.5C 415.472,234.139 403.472,221.806 391.5,209.5C 391.5,208.167 391.5,206.833 391.5,205.5 Z"/></g>
<g><path style="opacity:1" fill="#8c773b" d="M 59.5,201.5 C 62.196,202.885 64.8627,204.218 67.5,205.5C 67.954,208.14 69.1207,210.473 71,212.5C 81.2961,222.392 91.4628,232.392 101.5,242.5C 101.167,243.5 100.5,244.167 99.5,244.5C 86.5375,230.871 73.2042,217.538 59.5,204.5C 59.5,203.5 59.5,202.5 59.5,201.5 Z"/></g>
<g><path style="opacity:0.972" fill="#55462e" d="M 49.5,227.5 C 52.1202,229.162 54.7868,230.828 57.5,232.5C 58.0683,236.734 60.4016,239.4 64.5,240.5C 64.7036,242.685 65.3702,244.685 66.5,246.5C 64.9557,246.297 63.6223,245.63 62.5,244.5C 57.4893,239.118 52.4893,233.785 47.5,228.5C 48.1667,228.167 48.8333,227.833 49.5,227.5 Z"/></g>
<g><path style="opacity:1" fill="#d1b54d" d="M 429.5,211.5 C 432.09,212.128 434.423,213.295 436.5,215C 441.49,220.626 446.49,226.293 451.5,232C 456.319,235.488 460.819,239.321 465,243.5C 465.333,244.833 465.667,246.167 466,247.5C 466.333,247.167 466.667,246.833 467,246.5C 469.536,250.369 472.703,253.702 476.5,256.5C 476.5,257.5 476.5,258.5 476.5,259.5C 462.166,244.332 447.332,229.666 432,215.5C 431.338,214.016 430.504,212.683 429.5,211.5 Z"/></g>
<g><path style="opacity:0.953" fill="#d9c05b" d="M 460.5,229.5 C 465.72,230.969 471.054,231.636 476.5,231.5C 476.5,236.167 476.5,240.833 476.5,245.5C 470.812,240.479 465.479,235.146 460.5,229.5 Z"/></g>
<g><path style="opacity:0.993" fill="#5a492d" d="M 40.5,231.5 C 42.8213,236.008 45.988,239.008 50,240.5C 51.283,243.441 52.9497,246.107 55,248.5C 56,249.833 57,249.833 58,248.5C 60.5814,253.418 64.248,257.418 69,260.5C 69.4828,261.448 69.6495,262.448 69.5,263.5C 73.3342,264.429 76.0009,266.762 77.5,270.5C 81.1472,273.313 84.6472,276.313 88,279.5C 88.7354,283.069 90.9021,285.069 94.5,285.5C 99.2076,292.462 104.874,298.129 111.5,302.5C 111.5,305.5 111.5,308.5 111.5,311.5C 108.291,308.291 104.625,304.625 100.5,300.5C 99.6143,299.675 99.281,298.675 99.5,297.5C 98.1667,297.5 96.8333,297.5 95.5,297.5C 95.6495,296.448 95.4828,295.448 95,294.5C 82.0116,281.679 68.845,269.012 55.5,256.5C 55.2782,253.287 53.6115,251.454 50.5,251C 48.5864,249.587 47.2531,247.753 46.5,245.5C 45.3112,244.571 43.9778,244.238 42.5,244.5C 43.1258,240.625 41.4592,238.791 37.5,239C 36.1667,238.333 36.1667,237.667 37.5,237C 35.6813,236.26 34.3479,235.093 33.5,233.5C 35.8945,232.985 38.2278,232.319 40.5,231.5 Z"/></g>
<g><path style="opacity:0.997" fill="#55462d" d="M 40.5,231.5 C 41.1667,231.5 41.8333,231.5 42.5,231.5C 46.066,231.88 48.3994,233.88 49.5,237.5C 54.5687,240.438 58.5687,244.438 61.5,249.5C 63.0712,251.415 65.0712,252.415 67.5,252.5C 66.9585,256.295 68.6252,258.295 72.5,258.5C 76.414,262.002 79.7473,266.002 82.5,270.5C 83.7287,271.281 85.062,271.781 86.5,272C 90.5473,275.913 94.0473,280.413 97,285.5C 97.6667,284.167 98.3333,284.167 99,285.5C 99.3095,286.766 99.8095,287.933 100.5,289C 102.521,289.401 103.855,290.568 104.5,292.5C 105.689,293.429 107.022,293.762 108.5,293.5C 108.088,295.973 109.088,297.306 111.5,297.5C 111.5,299.167 111.5,300.833 111.5,302.5C 104.874,298.129 99.2076,292.462 94.5,285.5C 90.9021,285.069 88.7354,283.069 88,279.5C 84.6472,276.313 81.1472,273.313 77.5,270.5C 76.0009,266.762 73.3342,264.429 69.5,263.5C 69.6495,262.448 69.4828,261.448 69,260.5C 64.248,257.418 60.5814,253.418 58,248.5C 57,249.833 56,249.833 55,248.5C 52.9497,246.107 51.283,243.441 50,240.5C 45.988,239.008 42.8213,236.008 40.5,231.5 Z"/></g>
<g><path style="opacity:1" fill="#8c783b" d="M 391.5,217.5 C 402.438,227.937 413.272,238.604 424,249.5C 424.483,250.448 424.649,251.448 424.5,252.5C 423.391,252.443 422.391,252.11 421.5,251.5C 419.244,248.651 417.244,245.651 415.5,242.5C 408.987,238.884 403.654,233.884 399.5,227.5C 397.352,225.485 395.019,223.818 392.5,222.5C 392.371,220.784 392.038,219.117 391.5,217.5 Z"/></g>
<g><path style="opacity:0.989" fill="#614e2e" d="M 33.5,233.5 C 34.3479,235.093 35.6813,236.26 37.5,237C 36.1667,237.667 36.1667,238.333 37.5,239C 41.4592,238.791 43.1258,240.625 42.5,244.5C 43.9778,244.238 45.3112,244.571 46.5,245.5C 47.2531,247.753 48.5864,249.587 50.5,251C 53.6115,251.454 55.2782,253.287 55.5,256.5C 68.845,269.012 82.0116,281.679 95,294.5C 95.4828,295.448 95.6495,296.448 95.5,297.5C 96.8333,297.5 98.1667,297.5 99.5,297.5C 99.281,298.675 99.6143,299.675 100.5,300.5C 104.625,304.625 108.291,308.291 111.5,311.5C 111.5,314.5 111.5,317.5 111.5,320.5C 105.179,313.706 98.1789,307.873 90.5,303C 88.4138,299.24 85.9138,295.74 83,292.5C 79.619,291.951 77.7857,289.951 77.5,286.5C 76.914,286.709 76.414,287.043 76,287.5C 74,284.833 72,282.167 70,279.5C 69.6667,279.833 69.3333,280.167 69,280.5C 66.6762,277.404 64.1762,274.404 61.5,271.5C 60.675,270.614 59.675,270.281 58.5,270.5C 58.6495,269.448 58.4828,268.448 58,267.5C 55.5719,266.37 53.4053,264.87 51.5,263C 50.1667,262.333 50.1667,261.667 51.5,261C 50.552,260.517 49.552,260.351 48.5,260.5C 46.6989,255.565 43.3656,251.898 38.5,249.5C 37.7838,247.518 36.6171,245.851 35,244.5C 34.6667,244.833 34.3333,245.167 34,245.5C 33.51,244.207 33.3433,242.873 33.5,241.5C 32.448,241.649 31.448,241.483 30.5,241C 29.6159,239.28 28.2825,238.114 26.5,237.5C 26.5,236.167 26.5,234.833 26.5,233.5C 28.8333,233.5 31.1667,233.5 33.5,233.5 Z"/></g>
<g><path style="opacity:1" fill="#655431" d="M 55.5,221.5 C 61.4774,227.829 67.4774,234.162 73.5,240.5C 74.7362,241.246 76.0695,241.579 77.5,241.5C 77.238,242.978 77.5713,244.311 78.5,245.5C 81.068,247.673 83.4013,250.006 85.5,252.5C 84.1667,252.833 82.8333,253.167 81.5,253.5C 76.1877,246.854 70.1877,240.854 63.5,235.5C 62.5713,234.311 62.238,232.978 62.5,231.5C 61.448,231.649 60.448,231.483 59.5,231C 58.1941,228.093 56.1941,225.927 53.5,224.5C 53.9321,223.29 54.5987,222.29 55.5,221.5 Z"/></g>
<g><path style="opacity:0.985" fill="#aa9343" d="M 391.5,196.5 C 406.484,210.651 420.984,225.318 435,240.5C 446.606,250.532 457.44,261.198 467.5,272.5C 466.292,273.234 464.959,273.567 463.5,273.5C 458.188,268.276 452.855,262.942 447.5,257.5C 446.614,256.675 446.281,255.675 446.5,254.5C 445.448,254.649 444.448,254.483 443.5,254C 436.685,247.597 430.351,240.764 424.5,233.5C 423.675,232.614 422.675,232.281 421.5,232.5C 421.5,231.5 421.5,230.5 421.5,229.5C 420.448,229.649 419.448,229.483 418.5,229C 409.769,219.356 400.769,210.19 391.5,201.5C 391.5,199.833 391.5,198.167 391.5,196.5 Z"/></g>
<g><path style="opacity:0.97" fill="#5f4f2f" d="M 53.5,224.5 C 56.1941,225.927 58.1941,228.093 59.5,231C 60.448,231.483 61.448,231.649 62.5,231.5C 62.238,232.978 62.5713,234.311 63.5,235.5C 70.1877,240.854 76.1877,246.854 81.5,253.5C 82.5,254.167 83.5,254.833 84.5,255.5C 92.2267,264.229 100.56,272.229 109.5,279.5C 110.271,282.454 110.938,285.454 111.5,288.5C 108.893,287.288 107.226,285.288 106.5,282.5C 106.461,281.417 106.127,280.417 105.5,279.5C 98.4725,273.306 91.9725,266.64 86,259.5C 75.6445,251.309 66.1445,242.309 57.5,232.5C 54.7868,230.828 52.1202,229.162 49.5,227.5C 50.795,226.512 52.1283,225.512 53.5,224.5 Z"/></g>
<g><path style="opacity:0.946" fill="#7f6c37" d="M 393.5,226.5 C 396.864,228.681 399.531,231.514 401.5,235C 402.766,235.309 403.933,235.809 405,236.5C 408.434,240.097 411.267,244.097 413.5,248.5C 403.002,244.668 396.335,237.334 393.5,226.5 Z"/></g>
<g><path style="opacity:0.988" fill="#67542e" d="M 26.5,237.5 C 28.2825,238.114 29.6159,239.28 30.5,241C 31.448,241.483 32.448,241.649 33.5,241.5C 33.3433,242.873 33.51,244.207 34,245.5C 34.3333,245.167 34.6667,244.833 35,244.5C 36.6171,245.851 37.7838,247.518 38.5,249.5C 43.3656,251.898 46.6989,255.565 48.5,260.5C 49.552,260.351 50.552,260.517 51.5,261C 50.1667,261.667 50.1667,262.333 51.5,263C 53.4053,264.87 55.5719,266.37 58,267.5C 58.4828,268.448 58.6495,269.448 58.5,270.5C 59.675,270.281 60.675,270.614 61.5,271.5C 64.1762,274.404 66.6762,277.404 69,280.5C 69.3333,280.167 69.6667,279.833 70,279.5C 72,282.167 74,284.833 76,287.5C 76.414,287.043 76.914,286.709 77.5,286.5C 77.7857,289.951 79.619,291.951 83,292.5C 85.9138,295.74 88.4138,299.24 90.5,303C 98.1789,307.873 105.179,313.706 111.5,320.5C 111.5,323.5 111.5,326.5 111.5,329.5C 109.634,327.141 107.301,325.308 104.5,324C 104.833,323.667 105.167,323.333 105.5,323C 98.9275,316.046 91.9275,309.546 84.5,303.5C 80.9849,297.7 76.3182,293.2 70.5,290C 70.1667,287 68.5,285.333 65.5,285C 65.8333,284.667 66.1667,284.333 66.5,284C 63.8333,282.667 61.8333,280.667 60.5,278C 59.552,277.517 58.552,277.351 57.5,277.5C 57.0995,273.93 55.0995,271.764 51.5,271C 47.4258,265.255 42.5924,260.088 37,255.5C 36.6667,254.5 36.3333,253.5 36,252.5C 35.6667,252.833 35.3333,253.167 35,253.5C 32.9565,251.792 31.2899,249.792 30,247.5C 29.6667,247.833 29.3333,248.167 29,248.5C 28.7996,246.68 27.9663,245.347 26.5,244.5C 26.5,242.167 26.5,239.833 26.5,237.5 Z"/></g>
<g><path style="opacity:1" fill="#927d3c" d="M 391.5,213.5 C 397.813,219.478 404.146,225.478 410.5,231.5C 411.386,232.325 411.719,233.325 411.5,234.5C 412.552,234.351 413.552,234.517 414.5,235C 417.965,239.467 421.798,243.633 426,247.5C 426.383,246.944 426.883,246.611 427.5,246.5C 427.729,248.433 428.562,250.1 430,251.5C 438.776,260.115 447.609,268.449 456.5,276.5C 455.71,277.401 454.71,278.068 453.5,278.5C 445.219,269.811 436.553,261.311 427.5,253C 426.552,252.517 425.552,252.351 424.5,252.5C 424.649,251.448 424.483,250.448 424,249.5C 413.272,238.604 402.438,227.937 391.5,217.5C 391.5,216.167 391.5,214.833 391.5,213.5 Z"/></g>
<g><path style="opacity:0.985" fill="#6d582f" d="M 26.5,244.5 C 27.9663,245.347 28.7996,246.68 29,248.5C 29.3333,248.167 29.6667,247.833 30,247.5C 31.2899,249.792 32.9565,251.792 35,253.5C 35.3333,253.167 35.6667,252.833 36,252.5C 36.3333,253.5 36.6667,254.5 37,255.5C 42.5924,260.088 47.4258,265.255 51.5,271C 55.0995,271.764 57.0995,273.93 57.5,277.5C 58.552,277.351 59.552,277.517 60.5,278C 61.8333,280.667 63.8333,282.667 66.5,284C 66.1667,284.333 65.8333,284.667 65.5,285C 68.5,285.333 70.1667,287 70.5,290C 76.3182,293.2 80.9849,297.7 84.5,303.5C 91.9275,309.546 98.9275,316.046 105.5,323C 105.167,323.333 104.833,323.667 104.5,324C 107.301,325.308 109.634,327.141 111.5,329.5C 111.5,331.833 111.5,334.167 111.5,336.5C 106.562,331.777 101.062,326.777 95,321.5C 94.4389,319.275 93.4389,317.275 92,315.5C 91.2825,316.451 90.4491,316.617 89.5,316C 85.1942,308.361 79.1942,302.361 71.5,298C 70.7776,294.604 68.4442,292.271 64.5,291C 65.3363,289.757 65.003,288.59 63.5,287.5C 61.8983,288.55 61.065,287.883 61,285.5C 56.8333,284 54,281.167 52.5,277C 51.552,276.517 50.552,276.351 49.5,276.5C 49.6495,275.448 49.4828,274.448 49,273.5C 45.2353,269.462 41.0686,265.795 36.5,262.5C 34.5014,260.507 33.0014,258.173 32,255.5C 31,255.5 30,255.5 29,255.5C 28.3918,253.934 27.5585,252.6 26.5,251.5C 26.5,249.167 26.5,246.833 26.5,244.5 Z"/></g>
<g><path style="opacity:0.986" fill="#55462d" d="M 66.5,246.5 C 67.9217,246.709 69.255,247.209 70.5,248C 79.9421,258.218 89.6088,268.218 99.5,278C 102.233,278.904 104.567,280.404 106.5,282.5C 107.226,285.288 108.893,287.288 111.5,288.5C 111.5,289.833 111.5,291.167 111.5,292.5C 96.481,277.981 81.6477,263.314 67,248.5C 66.5357,247.906 66.369,247.239 66.5,246.5 Z"/></g>
<g><path style="opacity:1" fill="#5a4b2e" d="M 57.5,232.5 C 66.1445,242.309 75.6445,251.309 86,259.5C 91.9725,266.64 98.4725,273.306 105.5,279.5C 106.127,280.417 106.461,281.417 106.5,282.5C 104.567,280.404 102.233,278.904 99.5,278C 89.6088,268.218 79.9421,258.218 70.5,248C 69.255,247.209 67.9217,246.709 66.5,246.5C 65.3702,244.685 64.7036,242.685 64.5,240.5C 60.4016,239.4 58.0683,236.734 57.5,232.5 Z"/></g>
<g><path style="opacity:0.966" fill="#b29945" d="M 391.5,192.5 C 404.876,204.887 418.043,217.554 431,230.5C 432.438,231.9 433.271,233.567 433.5,235.5C 434.552,235.351 435.552,235.517 436.5,236C 447.816,247.649 459.149,259.316 470.5,271C 471.094,271.464 471.761,271.631 472.5,271.5C 471.081,272.451 469.415,272.784 467.5,272.5C 457.44,261.198 446.606,250.532 435,240.5C 420.984,225.318 406.484,210.651 391.5,196.5C 391.5,195.167 391.5,193.833 391.5,192.5 Z"/></g>
<g><path style="opacity:0.982" fill="#735c30" d="M 26.5,251.5 C 27.5585,252.6 28.3918,253.934 29,255.5C 30,255.5 31,255.5 32,255.5C 33.0014,258.173 34.5014,260.507 36.5,262.5C 41.0686,265.795 45.2353,269.462 49,273.5C 49.4828,274.448 49.6495,275.448 49.5,276.5C 50.552,276.351 51.552,276.517 52.5,277C 54,281.167 56.8333,284 61,285.5C 61.065,287.883 61.8983,288.55 63.5,287.5C 65.003,288.59 65.3363,289.757 64.5,291C 68.4442,292.271 70.7776,294.604 71.5,298C 79.1942,302.361 85.1942,308.361 89.5,316C 90.4491,316.617 91.2825,316.451 92,315.5C 93.4389,317.275 94.4389,319.275 95,321.5C 101.062,326.777 106.562,331.777 111.5,336.5C 110.85,338.435 110.517,340.435 110.5,342.5C 101.696,335.197 93.3624,327.363 85.5,319C 85.8333,318.667 86.1667,318.333 86.5,318C 85.2068,317.51 83.8734,317.343 82.5,317.5C 82.5,316.5 82.5,315.5 82.5,314.5C 80.0576,314.646 79.3909,313.813 80.5,312C 78.7536,311.529 77.087,310.862 75.5,310C 73.5699,306.947 71.0699,304.447 68,302.5C 67.51,301.207 67.3433,299.873 67.5,298.5C 63.6392,297.74 60.6392,295.74 58.5,292.5C 55.4113,284.411 49.7447,279.078 41.5,276.5C 41.6495,275.448 41.4828,274.448 41,273.5C 35.4703,269.49 30.6369,264.823 26.5,259.5C 26.5,256.833 26.5,254.167 26.5,251.5 Z"/></g>
<g><path style="opacity:0.968" fill="#867239" d="M 421.5,251.5 C 422.391,252.11 423.391,252.443 424.5,252.5C 427.362,256.376 430.862,259.709 435,262.5C 436.118,265.824 438.285,267.824 441.5,268.5C 441.351,269.552 441.517,270.552 442,271.5C 445.765,273.761 448.598,276.761 450.5,280.5C 450.672,281.492 450.338,282.158 449.5,282.5C 446.067,279.784 443.233,276.45 441,272.5C 440.282,273.451 439.449,273.617 438.5,273C 436.65,270.982 434.65,269.149 432.5,267.5C 431.548,265.955 431.215,264.288 431.5,262.5C 430.448,262.649 429.448,262.483 428.5,262C 425.809,258.376 422.475,255.542 418.5,253.5C 419.5,252.833 420.5,252.167 421.5,251.5 Z"/></g>
<g><path style="opacity:1" fill="#8c783b" d="M 424.5,252.5 C 425.552,252.351 426.552,252.517 427.5,253C 436.553,261.311 445.219,269.811 453.5,278.5C 453.027,279.906 452.027,280.573 450.5,280.5C 448.598,276.761 445.765,273.761 442,271.5C 441.517,270.552 441.351,269.552 441.5,268.5C 438.285,267.824 436.118,265.824 435,262.5C 430.862,259.709 427.362,256.376 424.5,252.5 Z"/></g>
<g><path style="opacity:0.987" fill="#97813d" d="M 427.5,246.5 C 437.507,256.501 447.507,266.501 457.5,276.5C 457.167,276.5 456.833,276.5 456.5,276.5C 447.609,268.449 438.776,260.115 430,251.5C 428.562,250.1 427.729,248.433 427.5,246.5 Z"/></g>
<g><path style="opacity:0.966" fill="#796636" d="M 412.5,255.5 C 413.209,254.596 414.209,254.263 415.5,254.5C 421.848,258.858 427.348,264.192 432,270.5C 437.104,275.291 442.271,279.958 447.5,284.5C 447.573,286.027 446.906,287.027 445.5,287.5C 434.291,277.06 423.291,266.393 412.5,255.5 Z"/></g>
<g><path style="opacity:0.977" fill="#806c37" d="M 415.5,254.5 C 416.209,253.596 417.209,253.263 418.5,253.5C 422.475,255.542 425.809,258.376 428.5,262C 429.448,262.483 430.448,262.649 431.5,262.5C 431.215,264.288 431.548,265.955 432.5,267.5C 434.65,269.149 436.65,270.982 438.5,273C 439.449,273.617 440.282,273.451 441,272.5C 443.233,276.45 446.067,279.784 449.5,282.5C 449.167,283.5 448.5,284.167 447.5,284.5C 442.271,279.958 437.104,275.291 432,270.5C 427.348,264.192 421.848,258.858 415.5,254.5 Z"/></g>
<g><path style="opacity:0.971" fill="#726034" d="M 412.5,255.5 C 423.291,266.393 434.291,277.06 445.5,287.5C 445.737,288.791 445.404,289.791 444.5,290.5C 441.058,287.235 437.391,284.068 433.5,281C 431.959,279.421 430.792,277.587 430,275.5C 422.387,270.388 415.887,264.055 410.5,256.5C 410.842,255.662 411.508,255.328 412.5,255.5 Z"/></g>
<g><path style="opacity:0.972" fill="#6c5b33" d="M 410.5,256.5 C 415.887,264.055 422.387,270.388 430,275.5C 430.792,277.587 431.959,279.421 433.5,281C 437.391,284.068 441.058,287.235 444.5,290.5C 444.371,292.216 444.038,293.883 443.5,295.5C 439.515,292.176 436.515,288.176 434.5,283.5C 433.448,283.649 432.448,283.483 431.5,283C 423.732,274.412 415.398,266.245 406.5,258.5C 407.514,257.326 408.847,256.66 410.5,256.5 Z"/></g>
<g><path style="opacity:0.904" fill="#796130" d="M 26.5,259.5 C 30.6369,264.823 35.4703,269.49 41,273.5C 41.4828,274.448 41.6495,275.448 41.5,276.5C 36.6378,274.966 31.6378,273.966 26.5,273.5C 26.5,268.833 26.5,264.167 26.5,259.5 Z"/></g>
<g><path style="opacity:0.963" fill="#5f4f30" d="M 404.5,260.5 C 408.929,266.266 414.262,270.933 420.5,274.5C 420.351,275.552 420.517,276.552 421,277.5C 423.595,280.11 426.428,282.276 429.5,284C 430.88,287.38 433.213,289.713 436.5,291C 437.997,294.651 440.33,297.484 443.5,299.5C 443.5,300.5 443.5,301.5 443.5,302.5C 434.702,293.202 425.702,284.035 416.5,275C 415.906,274.536 415.239,274.369 414.5,274.5C 413.735,272.071 412.069,270.738 409.5,270.5C 409.719,269.325 409.386,268.325 408.5,267.5C 406.146,265.812 404.146,263.812 402.5,261.5C 402.842,260.662 403.508,260.328 404.5,260.5 Z"/></g>
<g><path style="opacity:0.639" fill="#6b5a32" d="M 90.5,257.5 C 98.4151,259.784 103.748,264.784 106.5,272.5C 103.124,269.389 99.6244,266.389 96,263.5C 95.5172,262.552 95.3505,261.552 95.5,260.5C 93.0672,260.727 91.4006,259.727 90.5,257.5 Z"/></g>
<g><path style="opacity:0.957" fill="#5a4b2e" d="M 402.5,261.5 C 404.146,263.812 406.146,265.812 408.5,267.5C 409.386,268.325 409.719,269.325 409.5,270.5C 412.069,270.738 413.735,272.071 414.5,274.5C 413.127,274.657 411.793,274.49 410.5,274C 408.094,269.589 404.761,266.089 400.5,263.5C 400.833,262.5 401.5,261.833 402.5,261.5 Z"/></g>
<g><path style="opacity:0.977" fill="#55462d" d="M 400.5,263.5 C 404.761,266.089 408.094,269.589 410.5,274C 411.793,274.49 413.127,274.657 414.5,274.5C 415.451,276.472 416.451,278.472 417.5,280.5C 426.548,288.881 435.215,297.548 443.5,306.5C 443.5,307.167 443.5,307.833 443.5,308.5C 428.589,294.591 413.922,280.258 399.5,265.5C 399.328,264.508 399.662,263.842 400.5,263.5 Z"/></g>
<g><path style="opacity:1" fill="#655431" d="M 406.5,258.5 C 415.398,266.245 423.732,274.412 431.5,283C 432.448,283.483 433.448,283.649 434.5,283.5C 436.515,288.176 439.515,292.176 443.5,295.5C 443.5,296.833 443.5,298.167 443.5,299.5C 440.33,297.484 437.997,294.651 436.5,291C 433.213,289.713 430.88,287.38 429.5,284C 426.428,282.276 423.595,280.11 421,277.5C 420.517,276.552 420.351,275.552 420.5,274.5C 414.262,270.933 408.929,266.266 404.5,260.5C 404.833,259.5 405.5,258.833 406.5,258.5 Z"/></g>
<g><path style="opacity:1" fill="#51432d" d="M 47.5,228.5 C 52.4893,233.785 57.4893,239.118 62.5,244.5C 63.6223,245.63 64.9557,246.297 66.5,246.5C 66.369,247.239 66.5357,247.906 67,248.5C 81.6477,263.314 96.481,277.981 111.5,292.5C 111.5,294.167 111.5,295.833 111.5,297.5C 109.088,297.306 108.088,295.973 108.5,293.5C 107.022,293.762 105.689,293.429 104.5,292.5C 103.855,290.568 102.521,289.401 100.5,289C 99.8095,287.933 99.3095,286.766 99,285.5C 98.3333,284.167 97.6667,284.167 97,285.5C 94.0473,280.413 90.5473,275.913 86.5,272C 85.062,271.781 83.7287,271.281 82.5,270.5C 79.7473,266.002 76.414,262.002 72.5,258.5C 68.6252,258.295 66.9585,256.295 67.5,252.5C 65.0712,252.415 63.0712,251.415 61.5,249.5C 58.5687,244.438 54.5687,240.438 49.5,237.5C 48.3994,233.88 46.066,231.88 42.5,231.5C 43.9649,230.263 45.6316,229.263 47.5,228.5 Z"/></g>
<g><path style="opacity:0.978" fill="#55462d" d="M 397.5,268.5 C 401.736,272.044 405.236,276.377 408,281.5C 409,280.167 410,280.167 411,281.5C 411.49,282.793 411.657,284.127 411.5,285.5C 414.42,286.442 417.086,287.776 419.5,289.5C 419.137,291.911 420.137,293.411 422.5,294C 421.549,294.718 421.383,295.551 422,296.5C 422.718,295.549 423.551,295.383 424.5,296C 425.597,298.765 427.597,300.431 430.5,301C 431.191,302.067 431.691,303.234 432,304.5C 432.667,305.833 433.333,305.833 434,304.5C 436.911,308.524 440.078,312.191 443.5,315.5C 444.038,317.117 444.371,318.784 444.5,320.5C 441.305,320.416 440.139,319.083 441,316.5C 440.586,316.957 440.086,317.291 439.5,317.5C 433.408,310.927 427.575,304.261 422,297.5C 421.667,297.833 421.333,298.167 421,298.5C 419.74,295.572 417.573,293.739 414.5,293C 414.957,292.586 415.291,292.086 415.5,291.5C 414.726,290.289 413.893,290.289 413,291.5C 410.736,287.964 408.236,284.631 405.5,281.5C 404.264,280.754 402.93,280.421 401.5,280.5C 400.466,277.093 398.466,274.426 395.5,272.5C 395.66,270.847 396.326,269.514 397.5,268.5 Z"/></g>
<g><path style="opacity:1" fill="#655431" d="M 84.5,255.5 C 86.7857,255.595 88.7857,256.262 90.5,257.5C 91.4006,259.727 93.0672,260.727 95.5,260.5C 95.3505,261.552 95.5172,262.552 96,263.5C 99.6244,266.389 103.124,269.389 106.5,272.5C 108.065,274.509 109.065,276.843 109.5,279.5C 100.56,272.229 92.2267,264.229 84.5,255.5 Z"/></g>
<g><path style="opacity:0.978" fill="#5a492d" d="M 395.5,272.5 C 398.466,274.426 400.466,277.093 401.5,280.5C 402.93,280.421 404.264,280.754 405.5,281.5C 408.236,284.631 410.736,287.964 413,291.5C 413.893,290.289 414.726,290.289 415.5,291.5C 415.291,292.086 414.957,292.586 414.5,293C 417.573,293.739 419.74,295.572 421,298.5C 421.333,298.167 421.667,297.833 422,297.5C 427.575,304.261 433.408,310.927 439.5,317.5C 440.086,317.291 440.586,316.957 441,316.5C 440.139,319.083 441.305,320.416 444.5,320.5C 444.5,323.167 444.5,325.833 444.5,328.5C 436.215,321.718 428.382,314.384 421,306.5C 420.667,305.5 420.333,304.5 420,303.5C 419.667,303.833 419.333,304.167 419,304.5C 416.667,301.833 414.333,299.167 412,296.5C 411.667,296.833 411.333,297.167 411,297.5C 410.51,296.207 410.343,294.873 410.5,293.5C 409.167,293.5 407.833,293.5 406.5,293.5C 406.617,291.516 405.95,289.85 404.5,288.5C 400.128,285.461 396.461,281.794 393.5,277.5C 393.796,275.597 394.463,273.93 395.5,272.5 Z"/></g>
<g><path style="opacity:0.983" fill="#614e2e" d="M 393.5,277.5 C 396.461,281.794 400.128,285.461 404.5,288.5C 405.95,289.85 406.617,291.516 406.5,293.5C 407.833,293.5 409.167,293.5 410.5,293.5C 410.343,294.873 410.51,296.207 411,297.5C 411.333,297.167 411.667,296.833 412,296.5C 414.333,299.167 416.667,301.833 419,304.5C 419.333,304.167 419.667,303.833 420,303.5C 420.333,304.5 420.667,305.5 421,306.5C 428.382,314.384 436.215,321.718 444.5,328.5C 445.294,332.358 445.96,336.358 446.5,340.5C 445.5,340.5 444.5,340.5 443.5,340.5C 443.5,339.5 443.5,338.5 443.5,337.5C 442.448,337.649 441.448,337.483 440.5,337C 437.368,331.201 432.868,326.701 427,323.5C 426.644,320.271 424.81,318.771 421.5,319C 422.451,318.282 422.617,317.449 422,316.5C 415.828,309.677 408.995,303.677 401.5,298.5C 400.359,297.575 400.359,296.741 401.5,296C 397.787,293.355 394.454,290.522 391.5,287.5C 391.956,284.094 392.622,280.761 393.5,277.5 Z"/></g>
<g><path style="opacity:1" fill="#5b4b2f" d="M 414.5,274.5 C 415.239,274.369 415.906,274.536 416.5,275C 425.702,284.035 434.702,293.202 443.5,302.5C 443.5,303.833 443.5,305.167 443.5,306.5C 435.215,297.548 426.548,288.881 417.5,280.5C 416.451,278.472 415.451,276.472 414.5,274.5 Z"/></g>
<g><path style="opacity:0.984" fill="#67542e" d="M 391.5,287.5 C 394.454,290.522 397.787,293.355 401.5,296C 400.359,296.741 400.359,297.575 401.5,298.5C 408.995,303.677 415.828,309.677 422,316.5C 422.617,317.449 422.451,318.282 421.5,319C 424.81,318.771 426.644,320.271 427,323.5C 432.868,326.701 437.368,331.201 440.5,337C 441.448,337.483 442.448,337.649 443.5,337.5C 443.5,338.5 443.5,339.5 443.5,340.5C 444.5,340.5 445.5,340.5 446.5,340.5C 446.5,343.167 446.5,345.833 446.5,348.5C 444.605,347.297 442.605,346.131 440.5,345C 441.727,343.413 441.394,342.079 439.5,341C 435.244,339.08 431.911,336.08 429.5,332C 426.328,329.994 423.662,327.494 421.5,324.5C 420.675,323.614 419.675,323.281 418.5,323.5C 417.422,320.354 415.589,317.688 413,315.5C 412.667,315.833 412.333,316.167 412,316.5C 410.625,314.624 409.458,312.624 408.5,310.5C 401.509,308.008 396.675,303.341 394,296.5C 393.329,295.748 392.496,295.414 391.5,295.5C 391.5,292.833 391.5,290.167 391.5,287.5 Z"/></g>
<g><path style="opacity:1" fill="#51432d" d="M 399.5,265.5 C 413.922,280.258 428.589,294.591 443.5,308.5C 443.5,310.833 443.5,313.167 443.5,315.5C 440.078,312.191 436.911,308.524 434,304.5C 433.333,305.833 432.667,305.833 432,304.5C 431.691,303.234 431.191,302.067 430.5,301C 427.597,300.431 425.597,298.765 424.5,296C 423.551,295.383 422.718,295.549 422,296.5C 421.383,295.551 421.549,294.718 422.5,294C 420.137,293.411 419.137,291.911 419.5,289.5C 417.086,287.776 414.42,286.442 411.5,285.5C 411.657,284.127 411.49,282.793 411,281.5C 410,280.167 409,280.167 408,281.5C 405.236,276.377 401.736,272.044 397.5,268.5C 397.427,266.973 398.094,265.973 399.5,265.5 Z"/></g>
<g><path style="opacity:0.983" fill="#796130" d="M 58.5,292.5 C 60.6392,295.74 63.6392,297.74 67.5,298.5C 67.3433,299.873 67.51,301.207 68,302.5C 71.0699,304.447 73.5699,306.947 75.5,310C 77.087,310.862 78.7536,311.529 80.5,312C 79.3909,313.813 80.0576,314.646 82.5,314.5C 82.5,315.5 82.5,316.5 82.5,317.5C 83.8734,317.343 85.2068,317.51 86.5,318C 86.1667,318.333 85.8333,318.667 85.5,319C 93.3624,327.363 101.696,335.197 110.5,342.5C 110.5,345.5 110.5,348.5 110.5,351.5C 109.849,350.909 109.182,350.243 108.5,349.5C 107.914,349.709 107.414,350.043 107,350.5C 105.847,347.848 104.013,345.848 101.5,344.5C 100.571,343.311 100.238,341.978 100.5,340.5C 97.2297,340.698 95.2297,339.198 94.5,336C 88.1148,330.948 82.4482,325.282 77.5,319C 78.3402,317.334 77.8402,317.167 76,318.5C 72.2899,314.761 68.4565,311.261 64.5,308C 62.979,305.329 61.3123,302.829 59.5,300.5C 59.5987,297.763 59.2653,295.096 58.5,292.5 Z"/></g>
<g><path style="opacity:0.998" fill="#6d582f" d="M 391.5,295.5 C 392.496,295.414 393.329,295.748 394,296.5C 396.675,303.341 401.509,308.008 408.5,310.5C 409.458,312.624 410.625,314.624 412,316.5C 412.333,316.167 412.667,315.833 413,315.5C 415.589,317.688 417.422,320.354 418.5,323.5C 419.675,323.281 420.675,323.614 421.5,324.5C 423.662,327.494 426.328,329.994 429.5,332C 431.911,336.08 435.244,339.08 439.5,341C 441.394,342.079 441.727,343.413 440.5,345C 442.605,346.131 444.605,347.297 446.5,348.5C 446.5,351.5 446.5,354.5 446.5,357.5C 427.759,339.04 409.426,320.373 391.5,301.5C 391.5,299.5 391.5,297.5 391.5,295.5 Z"/></g>
<g><path style="opacity:0.999" fill="#735c30" d="M 391.5,301.5 C 409.426,320.373 427.759,339.04 446.5,357.5C 446.5,359.833 446.5,362.167 446.5,364.5C 443.326,363.522 441.659,361.689 441.5,359C 440.552,358.517 439.552,358.351 438.5,358.5C 438.018,355.549 436.352,353.382 433.5,352C 433.833,351.667 434.167,351.333 434.5,351C 428.086,345.912 422.086,340.245 416.5,334C 415.1,332.562 413.433,331.729 411.5,331.5C 408.975,327.118 405.142,323.118 400,319.5C 399.487,317.479 398.32,315.979 396.5,315C 396.833,314.667 397.167,314.333 397.5,314C 396.207,313.51 394.873,313.343 393.5,313.5C 393.715,311.821 393.048,310.821 391.5,310.5C 391.5,307.5 391.5,304.5 391.5,301.5 Z"/></g>
<g><path style="opacity:0.993" fill="#796130" d="M 391.5,310.5 C 393.048,310.821 393.715,311.821 393.5,313.5C 394.873,313.343 396.207,313.51 397.5,314C 397.167,314.333 396.833,314.667 396.5,315C 398.32,315.979 399.487,317.479 400,319.5C 405.142,323.118 408.975,327.118 411.5,331.5C 413.433,331.729 415.1,332.562 416.5,334C 422.086,340.245 428.086,345.912 434.5,351C 434.167,351.333 433.833,351.667 433.5,352C 436.352,353.382 438.018,355.549 438.5,358.5C 439.552,358.351 440.552,358.517 441.5,359C 441.659,361.689 443.326,363.522 446.5,364.5C 446.5,367.167 446.5,369.833 446.5,372.5C 443.746,371.869 441.912,370.202 441,367.5C 433.037,360.937 425.871,353.604 419.5,345.5C 418.914,345.709 418.414,346.043 418,346.5C 416.991,344.975 416.491,343.308 416.5,341.5C 413.23,341.698 411.23,340.198 410.5,337C 409.207,336.51 407.873,336.343 406.5,336.5C 406.854,333.579 405.854,331.246 403.5,329.5C 399.156,326.805 395.156,323.805 391.5,320.5C 391.5,317.167 391.5,313.833 391.5,310.5 Z"/></g>
<g><path style="opacity:0.994" fill="#866b33" d="M 59.5,309.5 C 61.2659,311.771 63.2659,313.937 65.5,316C 66.448,316.483 67.448,316.649 68.5,316.5C 70.2406,321.906 73.9073,325.239 79.5,326.5C 79.9662,328.201 79.9662,329.701 79.5,331C 83.257,332.372 85.9236,334.872 87.5,338.5C 86.9747,339.192 86.3081,339.692 85.5,340C 90.207,341.571 94.8737,343.904 99.5,347C 98.7203,348.073 98.887,349.24 100,350.5C 103.767,354.095 107.267,357.762 110.5,361.5C 110.5,364.167 110.5,366.833 110.5,369.5C 105.036,365.54 100.869,360.54 98,354.5C 95.4428,355.646 94.1095,354.646 94,351.5C 92.9326,350.809 91.7659,350.309 90.5,350C 85.6667,345.167 80.8333,340.333 76,335.5C 74.5619,334.1 73.7286,332.433 73.5,330.5C 72.448,330.649 71.448,330.483 70.5,330C 66.756,326.152 63.0893,322.319 59.5,318.5C 59.5,315.5 59.5,312.5 59.5,309.5 Z"/></g>
<g><path style="opacity:0.977" fill="#8c6f33" d="M 59.5,318.5 C 63.0893,322.319 66.756,326.152 70.5,330C 71.448,330.483 72.448,330.649 73.5,330.5C 73.7286,332.433 74.5619,334.1 76,335.5C 80.8333,340.333 85.6667,345.167 90.5,350C 91.7659,350.309 92.9326,350.809 94,351.5C 94.1095,354.646 95.4428,355.646 98,354.5C 100.869,360.54 105.036,365.54 110.5,369.5C 111.15,371.435 111.483,373.435 111.5,375.5C 109.468,374.952 108.468,373.619 108.5,371.5C 106.187,370.332 103.854,368.998 101.5,367.5C 97.1941,361.527 92.1941,356.194 86.5,351.5C 85.2638,350.754 83.9305,350.421 82.5,350.5C 79.1667,345.5 75.8333,340.5 72.5,335.5C 71.448,335.649 70.448,335.483 69.5,335C 65.2647,331.601 61.598,327.767 58.5,323.5C 58.366,321.708 58.6993,320.042 59.5,318.5 Z"/></g>
<g><path style="opacity:0.979" fill="#927434" d="M 58.5,323.5 C 61.598,327.767 65.2647,331.601 69.5,335C 70.448,335.483 71.448,335.649 72.5,335.5C 75.8333,340.5 79.1667,345.5 82.5,350.5C 83.9305,350.421 85.2638,350.754 86.5,351.5C 92.1941,356.194 97.1941,361.527 101.5,367.5C 103.854,368.998 106.187,370.332 108.5,371.5C 108.468,373.619 109.468,374.952 111.5,375.5C 112.741,379.742 115.408,382.742 119.5,384.5C 120.287,386.104 121.62,386.771 123.5,386.5C 123.351,387.552 123.517,388.552 124,389.5C 127.676,393.343 131.509,397.009 135.5,400.5C 135.5,403.833 135.5,407.167 135.5,410.5C 134.732,409.737 134.232,408.737 134,407.5C 133.586,407.957 133.086,408.291 132.5,408.5C 128.333,403.189 123.5,398.523 118,394.5C 115.979,391.159 113.646,388.159 111,385.5C 102.55,378.671 94.8829,371.004 88,362.5C 87.6667,362.833 87.3333,363.167 87,363.5C 84.9379,360.235 82.6046,357.235 80,354.5C 79.6667,354.833 79.3333,355.167 79,355.5C 76.68,352.669 74.5133,349.669 72.5,346.5C 71.914,346.709 71.414,347.043 71,347.5C 69.5336,344.443 67.7002,341.61 65.5,339C 62.2022,337.969 59.5355,336.136 57.5,333.5C 58.2071,330.214 58.5405,326.881 58.5,323.5 Z"/></g>
<g><path style="opacity:1" fill="#7f6631" d="M 391.5,320.5 C 395.156,323.805 399.156,326.805 403.5,329.5C 405.854,331.246 406.854,333.579 406.5,336.5C 407.873,336.343 409.207,336.51 410.5,337C 411.23,340.198 413.23,341.698 416.5,341.5C 416.491,343.308 416.991,344.975 418,346.5C 418.414,346.043 418.914,345.709 419.5,345.5C 425.871,353.604 433.037,360.937 441,367.5C 441.912,370.202 443.746,371.869 446.5,372.5C 446.599,375.237 446.265,377.904 445.5,380.5C 434.287,370.059 423.287,359.392 412.5,348.5C 411.05,347.15 410.383,345.484 410.5,343.5C 404.979,340.657 400.313,336.657 396.5,331.5C 394.879,330.305 393.213,329.305 391.5,328.5C 391.5,325.833 391.5,323.167 391.5,320.5 Z"/></g>
<g><path style="opacity:0.982" fill="#866b33" d="M 391.5,328.5 C 393.213,329.305 394.879,330.305 396.5,331.5C 400.313,336.657 404.979,340.657 410.5,343.5C 410.383,345.484 411.05,347.15 412.5,348.5C 423.287,359.392 434.287,370.059 445.5,380.5C 445.326,382.861 444.993,385.194 444.5,387.5C 432.867,376.879 421.367,365.879 410,354.5C 409.517,353.552 409.351,352.552 409.5,351.5C 406.459,351.594 404.793,350.094 404.5,347C 403.5,346.667 402.5,346.333 401.5,346C 399.03,342.511 396.03,339.677 392.5,337.5C 391.597,334.609 391.264,331.609 391.5,328.5 Z"/></g>
<g><path style="opacity:0.993" fill="#997935" d="M 57.5,333.5 C 59.5355,336.136 62.2022,337.969 65.5,339C 67.7002,341.61 69.5336,344.443 71,347.5C 71.414,347.043 71.914,346.709 72.5,346.5C 74.5133,349.669 76.68,352.669 79,355.5C 79.3333,355.167 79.6667,354.833 80,354.5C 82.6046,357.235 84.9379,360.235 87,363.5C 87.3333,363.167 87.6667,362.833 88,362.5C 94.8829,371.004 102.55,378.671 111,385.5C 113.646,388.159 115.979,391.159 118,394.5C 123.5,398.523 128.333,403.189 132.5,408.5C 133.086,408.291 133.586,407.957 134,407.5C 134.232,408.737 134.732,409.737 135.5,410.5C 135.5,411.833 135.5,413.167 135.5,414.5C 134.167,414.833 132.833,415.167 131.5,415.5C 125.617,411.129 120.617,405.796 116.5,399.5C 115.15,398.05 113.484,397.383 111.5,397.5C 111.719,396.325 111.386,395.325 110.5,394.5C 103.273,388.002 96.1064,381.335 89,374.5C 86.26,370.88 83.26,367.547 80,364.5C 79.935,362.117 79.1017,361.45 77.5,362.5C 74.2524,359.041 71.2524,355.374 68.5,351.5C 67.2638,350.754 65.9305,350.421 64.5,350.5C 63.2345,346.236 60.5679,343.236 56.5,341.5C 57.388,338.946 57.7214,336.279 57.5,333.5 Z"/></g>
<g><path style="opacity:1" fill="#7f6631" d="M 59.5,300.5 C 61.3123,302.829 62.979,305.329 64.5,308C 68.4565,311.261 72.2899,314.761 76,318.5C 77.8402,317.167 78.3402,317.334 77.5,319C 82.4482,325.282 88.1148,330.948 94.5,336C 95.2297,339.198 97.2297,340.698 100.5,340.5C 100.238,341.978 100.571,343.311 101.5,344.5C 104.013,345.848 105.847,347.848 107,350.5C 107.414,350.043 107.914,349.709 108.5,349.5C 109.182,350.243 109.849,350.909 110.5,351.5C 110.5,354.833 110.5,358.167 110.5,361.5C 107.267,357.762 103.767,354.095 100,350.5C 98.887,349.24 98.7203,348.073 99.5,347C 94.8737,343.904 90.207,341.571 85.5,340C 86.3081,339.692 86.9747,339.192 87.5,338.5C 85.9236,334.872 83.257,332.372 79.5,331C 79.9662,329.701 79.9662,328.201 79.5,326.5C 73.9073,325.239 70.2406,321.906 68.5,316.5C 67.448,316.649 66.448,316.483 65.5,316C 63.2659,313.937 61.2659,311.771 59.5,309.5C 59.5,306.5 59.5,303.5 59.5,300.5 Z"/></g>
<g><path style="opacity:0.989" fill="#9f7e36" d="M 56.5,341.5 C 60.5679,343.236 63.2345,346.236 64.5,350.5C 65.9305,350.421 67.2638,350.754 68.5,351.5C 71.2524,355.374 74.2524,359.041 77.5,362.5C 79.1017,361.45 79.935,362.117 80,364.5C 83.26,367.547 86.26,370.88 89,374.5C 96.1064,381.335 103.273,388.002 110.5,394.5C 111.386,395.325 111.719,396.325 111.5,397.5C 113.484,397.383 115.15,398.05 116.5,399.5C 120.617,405.796 125.617,411.129 131.5,415.5C 130.738,417.262 129.404,418.262 127.5,418.5C 117.236,409.215 107.236,399.715 97.5,390C 98.8331,388.16 98.6665,387.66 97,388.5C 95.1136,385.758 92.6136,384.091 89.5,383.5C 89.1667,379.833 87.1667,377.833 83.5,377.5C 81.6077,374.065 79.441,370.731 77,367.5C 75.2835,368.552 74.2835,367.886 74,365.5C 68.1881,360.033 62.3548,354.7 56.5,349.5C 56.5,346.833 56.5,344.167 56.5,341.5 Z"/></g>
<g><path style="opacity:0.985" fill="#8c6f33" d="M 392.5,337.5 C 396.03,339.677 399.03,342.511 401.5,346C 402.5,346.333 403.5,346.667 404.5,347C 404.793,350.094 406.459,351.594 409.5,351.5C 409.351,352.552 409.517,353.552 410,354.5C 421.367,365.879 432.867,376.879 444.5,387.5C 444.204,389.403 443.537,391.07 442.5,392.5C 441.533,391.194 440.199,390.527 438.5,390.5C 438.5,389.5 438.5,388.5 438.5,387.5C 436.418,387.528 434.584,386.861 433,385.5C 431.018,381.854 428.351,378.854 425,376.5C 424.431,373.597 422.765,371.597 420,370.5C 419.517,369.552 419.351,368.552 419.5,367.5C 418.448,367.649 417.448,367.483 416.5,367C 408.616,358.922 400.616,351.088 392.5,343.5C 392.5,341.5 392.5,339.5 392.5,337.5 Z"/></g>
<g><path style="opacity:0.981" fill="#927434" d="M 392.5,343.5 C 400.616,351.088 408.616,358.922 416.5,367C 417.448,367.483 418.448,367.649 419.5,367.5C 419.351,368.552 419.517,369.552 420,370.5C 422.765,371.597 424.431,373.597 425,376.5C 428.351,378.854 431.018,381.854 433,385.5C 434.584,386.861 436.418,387.528 438.5,387.5C 438.5,388.5 438.5,389.5 438.5,390.5C 440.199,390.527 441.533,391.194 442.5,392.5C 442.293,395.241 441.293,397.574 439.5,399.5C 436.328,397.593 433.662,395.093 431.5,392C 430.552,391.517 429.552,391.351 428.5,391.5C 428.071,388.317 426.404,385.984 423.5,384.5C 422.614,383.675 422.281,382.675 422.5,381.5C 420.095,380.313 417.761,378.813 415.5,377C 416.711,376.107 416.711,375.274 415.5,374.5C 414.28,373.289 413.113,373.289 412,374.5C 406.311,366.004 399.811,359.004 392.5,353.5C 392.5,350.167 392.5,346.833 392.5,343.5 Z"/></g>
<g><path style="opacity:0.998" fill="#a4843b" d="M 56.5,349.5 C 62.3548,354.7 68.1881,360.033 74,365.5C 74.2835,367.886 75.2835,368.552 77,367.5C 79.441,370.731 81.6077,374.065 83.5,377.5C 87.1667,377.833 89.1667,379.833 89.5,383.5C 92.6136,384.091 95.1136,385.758 97,388.5C 98.6665,387.66 98.8331,388.16 97.5,390C 107.236,399.715 117.236,409.215 127.5,418.5C 127.167,419.167 126.833,419.833 126.5,420.5C 124.167,420.5 121.833,420.5 119.5,420.5C 105.56,407.393 92.0604,393.726 79,379.5C 78.6667,379.833 78.3333,380.167 78,380.5C 76.2879,377.318 74.4546,374.318 72.5,371.5C 69.5,371.833 68.1667,370.5 68.5,367.5C 64.0091,365.762 60.0091,362.429 56.5,357.5C 56.5,354.833 56.5,352.167 56.5,349.5 Z"/></g>
<g><path style="opacity:0.977" fill="#997935" d="M 392.5,353.5 C 399.811,359.004 406.311,366.004 412,374.5C 413.113,373.289 414.28,373.289 415.5,374.5C 416.711,375.274 416.711,376.107 415.5,377C 417.761,378.813 420.095,380.313 422.5,381.5C 422.281,382.675 422.614,383.675 423.5,384.5C 426.404,385.984 428.071,388.317 428.5,391.5C 429.552,391.351 430.552,391.517 431.5,392C 433.662,395.093 436.328,397.593 439.5,399.5C 438.66,401.853 437.326,403.853 435.5,405.5C 432.183,402.985 429.683,399.651 428,395.5C 427.667,395.833 427.333,396.167 427,396.5C 425.337,394.083 423.171,392.25 420.5,391C 419.809,389.933 419.309,388.766 419,387.5C 418.667,387.833 418.333,388.167 418,388.5C 417,386.833 416,385.167 415,383.5C 410.883,380.909 407.55,378.242 405,375.5C 404.517,374.552 404.351,373.552 404.5,372.5C 402.319,372.716 400.653,371.883 399.5,370C 400.167,369.667 400.833,369.333 401.5,369C 399.671,368.727 398.171,367.893 397,366.5C 395.334,367.34 395.167,366.84 396.5,365C 394.65,364.31 393.316,363.144 392.5,361.5C 392.5,358.833 392.5,356.167 392.5,353.5 Z"/></g>
<g><path style="opacity:1" fill="#a88941" d="M 56.5,357.5 C 60.0091,362.429 64.0091,365.762 68.5,367.5C 68.1667,370.5 69.5,371.833 72.5,371.5C 74.4546,374.318 76.2879,377.318 78,380.5C 78.3333,380.167 78.6667,379.833 79,379.5C 92.0604,393.726 105.56,407.393 119.5,420.5C 117.5,420.5 115.5,420.5 113.5,420.5C 97.22,403.722 80.3867,387.389 63,371.5C 62.5172,370.552 62.3505,369.552 62.5,368.5C 61.1667,368.5 59.8333,368.5 58.5,368.5C 58.7148,366.821 58.0481,365.821 56.5,365.5C 56.5,362.833 56.5,360.167 56.5,357.5 Z"/></g>
<g><path style="opacity:0.979" fill="#9f7e36" d="M 392.5,361.5 C 393.316,363.144 394.65,364.31 396.5,365C 395.167,366.84 395.334,367.34 397,366.5C 398.171,367.893 399.671,368.727 401.5,369C 400.833,369.333 400.167,369.667 399.5,370C 400.653,371.883 402.319,372.716 404.5,372.5C 404.351,373.552 404.517,374.552 405,375.5C 407.55,378.242 410.883,380.909 415,383.5C 416,385.167 417,386.833 418,388.5C 418.333,388.167 418.667,387.833 419,387.5C 419.309,388.766 419.809,389.933 420.5,391C 423.171,392.25 425.337,394.083 427,396.5C 427.333,396.167 427.667,395.833 428,395.5C 429.683,399.651 432.183,402.985 435.5,405.5C 434.5,407.167 433.167,408.5 431.5,409.5C 431.013,408.527 430.513,407.527 430,406.5C 422.134,400.196 414.967,393.363 408.5,386C 408.833,385.667 409.167,385.333 409.5,385C 408.5,384.667 407.5,384.333 406.5,384C 403.302,380.888 400.302,377.555 397.5,374C 396.5,373.667 395.5,373.333 394.5,373C 394.833,372.667 395.167,372.333 395.5,372C 394.255,371.209 392.922,370.709 391.5,370.5C 392.403,367.609 392.736,364.609 392.5,361.5 Z"/></g>
<g><path style="opacity:1" fill="#ac8e47" d="M 56.5,365.5 C 58.0481,365.821 58.7148,366.821 58.5,368.5C 59.8333,368.5 61.1667,368.5 62.5,368.5C 62.3505,369.552 62.5172,370.552 63,371.5C 80.3867,387.389 97.22,403.722 113.5,420.5C 110.5,420.5 107.5,420.5 104.5,420.5C 101.733,418.199 99.8994,415.199 99,411.5C 95.6775,411.301 93.5109,409.635 92.5,406.5C 87.5342,401.705 82.3675,397.039 77,392.5C 76.1965,389.56 74.8631,386.893 73,384.5C 70.9555,385.772 69.1222,385.439 67.5,383.5C 64.1708,378.976 60.5042,374.976 56.5,371.5C 56.5,369.5 56.5,367.5 56.5,365.5 Z"/></g>
<g><path style="opacity:0.986" fill="#b0934d" d="M 56.5,371.5 C 60.5042,374.976 64.1708,378.976 67.5,383.5C 69.1222,385.439 70.9555,385.772 73,384.5C 74.8631,386.893 76.1965,389.56 77,392.5C 82.3675,397.039 87.5342,401.705 92.5,406.5C 93.5109,409.635 95.6775,411.301 99,411.5C 99.8994,415.199 101.733,418.199 104.5,420.5C 102.833,420.5 101.167,420.5 99.5,420.5C 95.1056,415.456 90.4389,410.622 85.5,406C 84.552,405.517 83.552,405.351 82.5,405.5C 81.4611,401.128 78.7945,398.461 74.5,397.5C 74.3807,393.875 72.5473,391.541 69,390.5C 68.3333,389.167 67.6667,387.833 67,386.5C 66.586,386.957 66.086,387.291 65.5,387.5C 64.081,385.664 62.9143,383.664 62,381.5C 61.6667,381.833 61.3333,382.167 61,382.5C 59.5315,381.011 58.0315,379.677 56.5,378.5C 56.5,376.167 56.5,373.833 56.5,371.5 Z"/></g>
<g><path style="opacity:0.986" fill="#a4833a" d="M 391.5,370.5 C 392.922,370.709 394.255,371.209 395.5,372C 395.167,372.333 394.833,372.667 394.5,373C 395.5,373.333 396.5,373.667 397.5,374C 400.302,377.555 403.302,380.888 406.5,384C 407.5,384.333 408.5,384.667 409.5,385C 409.167,385.333 408.833,385.667 408.5,386C 414.967,393.363 422.134,400.196 430,406.5C 430.513,407.527 431.013,408.527 431.5,409.5C 430.101,410.89 428.434,411.89 426.5,412.5C 414.509,400.543 402.509,388.543 390.5,376.5C 390.833,374.5 391.167,372.5 391.5,370.5 Z"/></g>
<g><path style="opacity:0.973" fill="#ac8d47" d="M 387.5,380.5 C 388.268,381.263 388.768,382.263 389,383.5C 389.333,383.167 389.667,382.833 390,382.5C 400.736,393.4 411.236,404.4 421.5,415.5C 420.167,415.833 418.833,416.167 417.5,416.5C 417.5,415.5 417.5,414.5 417.5,413.5C 414.813,412.336 412.48,410.503 410.5,408C 406.188,407.029 403.022,404.529 401,400.5C 400.667,400.833 400.333,401.167 400,401.5C 397.911,399.543 397.077,397.376 397.5,395C 396.027,394.29 395.36,393.124 395.5,391.5C 392.65,390.828 390.483,389.161 389,386.5C 388.667,387.167 388.333,387.833 388,388.5C 387.045,385.996 385.878,383.663 384.5,381.5C 385.391,380.89 386.391,380.557 387.5,380.5 Z"/></g>
<g><path style="opacity:0.994" fill="#b39752" d="M 56.5,378.5 C 58.0315,379.677 59.5315,381.011 61,382.5C 61.3333,382.167 61.6667,381.833 62,381.5C 62.9143,383.664 64.081,385.664 65.5,387.5C 66.086,387.291 66.586,386.957 67,386.5C 67.6667,387.833 68.3333,389.167 69,390.5C 72.5473,391.541 74.3807,393.875 74.5,397.5C 78.7945,398.461 81.4611,401.128 82.5,405.5C 83.552,405.351 84.552,405.517 85.5,406C 90.4389,410.622 95.1056,415.456 99.5,420.5C 95.8019,420.448 92.1352,420.114 88.5,419.5C 88.5,418.833 88.5,418.167 88.5,417.5C 87.3741,415.5 87.2075,413.5 88,411.5C 86.0426,409.411 83.8759,408.577 81.5,409C 78.5016,406.685 76.3349,403.852 75,400.5C 73.0843,398.791 70.9176,397.457 68.5,396.5C 67.7242,394.644 66.3909,393.311 64.5,392.5C 64.7093,391.914 65.0426,391.414 65.5,391C 62.2832,389.045 59.6166,386.545 57.5,383.5C 57.3713,381.784 57.038,380.117 56.5,378.5 Z"/></g>
<g><path style="opacity:0.965" fill="#b0924c" d="M 384.5,381.5 C 385.878,383.663 387.045,385.996 388,388.5C 388.333,387.833 388.667,387.167 389,386.5C 390.483,389.161 392.65,390.828 395.5,391.5C 395.36,393.124 396.027,394.29 397.5,395C 397.077,397.376 397.911,399.543 400,401.5C 400.333,401.167 400.667,400.833 401,400.5C 403.022,404.529 406.188,407.029 410.5,408C 412.48,410.503 414.813,412.336 417.5,413.5C 417.5,414.5 417.5,415.5 417.5,416.5C 414.5,417.167 411.5,417.833 408.5,418.5C 406.177,415.677 403.677,413.01 401,410.5C 400.354,406.022 397.854,403.356 393.5,402.5C 392.241,399.51 390.908,396.51 389.5,393.5C 388.178,393.33 387.011,393.663 386,394.5C 385.781,393.062 385.281,391.729 384.5,390.5C 382.028,389.03 380.195,387.03 379,384.5C 377.791,384.347 376.625,384.014 375.5,383.5C 378.5,382.833 381.5,382.167 384.5,381.5 Z"/></g>
<g><path style="opacity:0.973" fill="#b69a55" d="M 57.5,383.5 C 59.6166,386.545 62.2832,389.045 65.5,391C 65.0426,391.414 64.7093,391.914 64.5,392.5C 66.3909,393.311 67.7242,394.644 68.5,396.5C 70.9176,397.457 73.0843,398.791 75,400.5C 76.3349,403.852 78.5016,406.685 81.5,409C 83.8759,408.577 86.0426,409.411 88,411.5C 87.2075,413.5 87.3741,415.5 88.5,417.5C 85.094,415.932 82.094,413.765 79.5,411C 72.9679,403.302 65.9679,396.135 58.5,389.5C 58.1667,387.5 57.8333,385.5 57.5,383.5 Z"/></g>
<g><path style="opacity:0.922" fill="#8b6e33" d="M 119.5,384.5 C 124.822,384.98 130.155,385.313 135.5,385.5C 135.5,390.5 135.5,395.5 135.5,400.5C 131.509,397.009 127.676,393.343 124,389.5C 123.517,388.552 123.351,387.552 123.5,386.5C 121.62,386.771 120.287,386.104 119.5,384.5 Z"/></g>
<g><path style="opacity:0.971" fill="#b99e5a" d="M 367.5,384.5 C 379.294,395.472 390.628,406.805 401.5,418.5C 399.833,418.5 398.167,418.5 396.5,418.5C 395.737,417.732 394.737,417.232 393.5,417C 393.833,416.667 394.167,416.333 394.5,416C 385.631,407.295 376.631,398.795 367.5,390.5C 367.5,388.5 367.5,386.5 367.5,384.5 Z"/></g>
<g><path style="opacity:1" fill="#a88941" d="M 390.5,376.5 C 402.509,388.543 414.509,400.543 426.5,412.5C 425.035,413.737 423.368,414.737 421.5,415.5C 411.236,404.4 400.736,393.4 390,382.5C 389.667,382.833 389.333,383.167 389,383.5C 388.768,382.263 388.268,381.263 387.5,380.5C 388.512,379.128 389.512,377.795 390.5,376.5 Z"/></g>
<g><path style="opacity:0.931" fill="#b99f5b" d="M 58.5,389.5 C 65.9679,396.135 72.9679,403.302 79.5,411C 82.094,413.765 85.094,415.932 88.5,417.5C 88.5,418.167 88.5,418.833 88.5,419.5C 72.1795,415.846 62.1795,405.846 58.5,389.5 Z"/></g>
<g><path style="opacity:0.973" fill="#bda360" d="M 367.5,390.5 C 376.631,398.795 385.631,407.295 394.5,416C 394.167,416.333 393.833,416.667 393.5,417C 394.737,417.232 395.737,417.732 396.5,418.5C 393.5,418.5 390.5,418.5 387.5,418.5C 387.291,417.078 386.791,415.745 386,414.5C 385,413.167 384,413.167 383,414.5C 381.887,413.24 381.72,412.073 382.5,411C 379.553,410.888 378.22,409.388 378.5,406.5C 375.795,405.607 373.128,404.44 370.5,403C 370.957,402.586 371.291,402.086 371.5,401.5C 370.151,400.091 368.818,398.757 367.5,397.5C 367.5,395.167 367.5,392.833 367.5,390.5 Z"/></g>
<g><path style="opacity:1" fill="#b49853" d="M 367.5,384.5 C 369.948,383.527 372.615,383.194 375.5,383.5C 376.625,384.014 377.791,384.347 379,384.5C 380.195,387.03 382.028,389.03 384.5,390.5C 385.281,391.729 385.781,393.062 386,394.5C 387.011,393.663 388.178,393.33 389.5,393.5C 390.908,396.51 392.241,399.51 393.5,402.5C 397.854,403.356 400.354,406.022 401,410.5C 403.677,413.01 406.177,415.677 408.5,418.5C 406.167,418.5 403.833,418.5 401.5,418.5C 390.628,406.805 379.294,395.472 367.5,384.5 Z"/></g>
<g><path style="opacity:0.961" fill="#c1a966" d="M 367.5,397.5 C 368.818,398.757 370.151,400.091 371.5,401.5C 371.291,402.086 370.957,402.586 370.5,403C 373.128,404.44 375.795,405.607 378.5,406.5C 378.22,409.388 379.553,410.888 382.5,411C 381.72,412.073 381.887,413.24 383,414.5C 384,413.167 385,413.167 386,414.5C 386.791,415.745 387.291,417.078 387.5,418.5C 384.833,418.5 382.167,418.5 379.5,418.5C 377.479,416.968 375.979,414.968 375,412.5C 371.75,411.31 369.25,409.31 367.5,406.5C 367.5,403.5 367.5,400.5 367.5,397.5 Z"/></g>
<g><path style="opacity:0.893" fill="#c6ae6e" d="M 367.5,406.5 C 369.25,409.31 371.75,411.31 375,412.5C 375.979,414.968 377.479,416.968 379.5,418.5C 375.5,418.5 371.5,418.5 367.5,418.5C 367.5,414.5 367.5,410.5 367.5,406.5 Z"/></g>
<g><path style="opacity:0.8" fill="#65522f" d="M 135.5,414.5 C 135.5,416.5 135.5,418.5 135.5,420.5C 132.5,420.5 129.5,420.5 126.5,420.5C 126.833,419.833 127.167,419.167 127.5,418.5C 129.404,418.262 130.738,417.262 131.5,415.5C 132.833,415.167 134.167,414.833 135.5,414.5 Z"/></g>
</svg>
